<?xml version="1.0" encoding="UTF-8"?>
<svg id="Layer_2" data-name="Layer 2" xmlns="http://www.w3.org/2000/svg" xmlns:xlink="http://www.w3.org/1999/xlink" viewBox="0 0 231.54 53.45">
  <defs>
    <style>
      .cls-1 {
        isolation: isolate;
      }

      .cls-1, .cls-2 {
        opacity: .05;
      }

      .cls-1, .cls-3, .cls-4, .cls-5, .cls-6, .cls-7, .cls-8, .cls-9, .cls-10, .cls-11, .cls-12, .cls-13 {
        stroke-width: 0px;
      }

      .cls-1, .cls-13 {
        fill: #010101;
      }

      .cls-3 {
        fill: url(#linear-gradient);
      }

      .cls-4 {
        fill: #f7f7f7;
      }

      .cls-5 {
        fill: #6181b7;
      }

      .cls-6 {
        fill: #3d9cd6;
      }

      .cls-7 {
        fill: #e45026;
      }

      .cls-8 {
        fill: #fff;
      }

      .cls-9 {
        fill: #f0bf20;
      }

      .cls-10 {
        fill: #f1682a;
      }

      .cls-11 {
        fill: #e6a329;
      }

      .cls-12 {
        fill: #04759b;
      }
    </style>
    <linearGradient id="linear-gradient" x1="75.37" y1="-46.44" x2="75.37" y2="-39.35" gradientTransform="translate(0 -18.38) scale(1 -1)" gradientUnits="userSpaceOnUse">
      <stop offset=".39" stop-color="#d2d3d4" stop-opacity="0"/>
      <stop offset="1" stop-color="#d2d3d4"/>
    </linearGradient>
  </defs>
  <g id="Icons">
    <g id="html-css-js-php-wordpress">
      <g id="wordpres">
        <circle id="Ellipse" class="cls-8" cx="204.82" cy="26.72" r="26.72"/>
        <path class="cls-12" d="m181.89,26.73c0,9.08,5.27,16.92,12.92,20.64l-10.93-29.97c-1.27,2.86-1.99,6.01-1.99,9.34Z"/>
        <path class="cls-12" d="m220.3,25.57c0-2.83-1.01-4.79-1.89-6.32-1.17-1.89-2.26-3.48-2.26-5.37,0-2.11,1.59-4.07,3.85-4.07.1,0,.19,0,.29.02-4.08-3.73-9.51-6.02-15.48-6.02-8.01,0-15.06,4.11-19.16,10.33.53.02,1.04.03,1.47.03,2.4,0,6.11-.29,6.11-.29,1.23-.07,1.38,1.74.15,1.89,0,0-1.24.15-2.63.22l8.35,24.84,5.01-15.05-3.58-9.79c-1.23-.07-2.41-.22-2.41-.22-1.23-.07-1.09-1.96.15-1.89,0,0,3.79.29,6.04.29,2.4,0,6.11-.29,6.11-.29,1.23-.07,1.38,1.74.15,1.89,0,0-1.24.15-2.63.22l8.29,24.64,2.29-7.64c1.01-3.16,1.77-5.45,1.77-7.41Z"/>
        <path class="cls-12" d="m205.22,28.74l-6.88,19.99c2.06.61,4.23.93,6.48.93,2.67,0,5.23-.46,7.61-1.3-.06-.1-.12-.2-.17-.31l-7.05-19.31Z"/>
        <path class="cls-12" d="m224.94,15.72c.1.73.16,1.51.16,2.36,0,2.32-.43,4.94-1.74,8.21l-7,20.25c6.82-3.97,11.4-11.36,11.4-19.82,0-3.99-1.02-7.73-2.81-11Z"/>
        <path class="cls-12" d="m204.82,0c-14.74,0-26.73,11.99-26.73,26.73s11.99,26.73,26.73,26.73,26.73-11.99,26.73-26.73S219.55,0,204.82,0Zm0,52.23c-14.06,0-25.5-11.44-25.5-25.5S190.75,1.23,204.82,1.23s25.5,11.44,25.5,25.5-11.44,25.5-25.5,25.5Z"/>
      </g>
      <g id="php">
        <circle id="Ellipse-2" data-name="Ellipse" class="cls-5" cx="160.65" cy="26.73" r="26.72"/>
        <path class="cls-8" d="m149.07,22.75c1.11,0,1.84.2,2.21.61.38.41.45,1.11.26,2.09-.2,1.03-.59,1.78-1.16,2.21s-1.44.65-2.61.65h-1.76l1.09-5.57h1.97Zm-7.07,11.21h2.9l.69-3.53h2.49c1.11,0,1.99-.12,2.7-.36.71-.24,1.34-.61,1.93-1.16.49-.45.89-.95,1.18-1.48s.51-1.13.63-1.78c.32-1.58.08-2.8-.69-3.69s-1.99-1.32-3.67-1.32h-5.59l-2.59,13.32Z"/>
        <path class="cls-8" d="m156.67,17.1h2.88l-.69,3.53h2.57c1.62,0,2.72.28,3.34.85.61.57.79,1.48.55,2.74l-1.2,6.2h-2.92l1.14-5.9c.14-.67.08-1.13-.14-1.36-.22-.24-.71-.38-1.44-.38h-2.31l-1.48,7.64h-2.88l2.59-13.32Z"/>
        <path class="cls-8" d="m171.28,22.75c1.11,0,1.84.2,2.21.61s.45,1.11.26,2.09c-.2,1.03-.59,1.78-1.16,2.21s-1.44.65-2.61.65h-1.76l1.09-5.57h1.97Zm-7.07,11.21h2.9l.69-3.53h2.49c1.11,0,1.99-.12,2.7-.36.71-.24,1.34-.61,1.93-1.16.49-.45.89-.95,1.18-1.48s.51-1.13.63-1.78c.32-1.58.08-2.8-.69-3.69s-1.99-1.32-3.67-1.32h-5.59l-2.59,13.32Z"/>
      </g>
      <g id="javascript">
        <circle id="Ellipse-3" data-name="Ellipse" class="cls-9" cx="115.29" cy="26.72" r="26.72"/>
        <polygon class="cls-4" points="129.31 15.07 115.29 15.07 115.29 15.07 101.26 15.07 103.89 43.59 115.29 46.82 115.29 46.82 115.29 46.82 115.29 46.82 115.29 46.82 126.68 43.59 129.31 15.07"/>
        <polygon class="cls-8" points="115.29 17.39 115.29 44.41 115.29 44.41 124.52 41.79 126.76 17.39 115.29 17.39"/>
        <g>
          <polygon class="cls-9" points="122.63 20.89 108.43 20.89 107.44 31.57 107.47 31.5 119.53 31.5 119.13 36.02 115.29 37.13 111.38 36 111.15 33.27 107.6 33.27 108.11 38.73 115.29 40.77 122.46 38.73 123.45 28.01 110.66 28.01 110.82 24.44 119.7 24.44 119.83 26.48 123.41 26.48 122.63 20.89"/>
          <path class="cls-11" d="m115.29,20.89h-6.85l-.99,10.68.02-.07h7.82v-3.49h-4.14l.16-3.57h3.97v-3.55Zm-4.14,12.38h-3.55l.51,5.46,7.18,2.03v-3.64l-3.91-1.13-.23-2.73Z"/>
        </g>
        <g>
          <polygon class="cls-8" points="112.56 10.86 110.06 10.86 110.06 12.65 112.56 12.65 113.89 12.65 114.34 12.65 114.34 7.33 112.56 7.33 112.56 10.86"/>
          <path class="cls-8" d="m120.51,7.36h-4.35v1.86c.58.58.89.86,1.73,1.7-.49,0-1.73,0-1.73,0v1.7h4.35v-1.7l-1.74-1.7h1.74v-1.86Z"/>
        </g>
      </g>
      <g id="css3">
        <circle id="Ellipse-4" data-name="Ellipse" class="cls-6" cx="70.98" cy="26.72" r="26.72"/>
        <polygon class="cls-4" points="82.47 43.86 70.97 46.95 59.48 43.86 56.84 15.13 85.12 15.13 82.47 43.86"/>
        <polygon class="cls-8" points="70.97 17.46 70.97 44.48 71 44.49 80.3 41.98 82.45 17.46 70.97 17.46"/>
        <g id="_3" data-name="3">
          <polygon class="cls-6" points="70.97 24.64 62.74 28.06 63.02 31.45 70.97 28.06 79.43 24.44 79.77 20.97 70.97 24.64"/>
          <polygon class="cls-6" points="62.74 28.06 63.02 31.45 70.97 28.06 70.97 24.64 62.74 28.06"/>
          <polygon class="cls-3" points="79.77 20.97 70.97 24.64 70.97 28.06 79.43 24.44 79.77 20.97"/>
          <polygon class="cls-6" points="62.76 28.06 63.03 31.45 75.23 31.5 74.96 36.02 70.94 37.15 67.09 36.17 66.85 33.36 63.26 33.36 63.73 38.79 70.98 40.93 78.2 38.82 79.12 28.06 62.76 28.06"/>
          <g class="cls-2">
            <polygon class="cls-13" points="70.97 28.06 62.74 28.06 63.02 31.45 70.97 31.48 70.97 28.06"/>
            <polygon class="cls-13" points="70.97 37.13 70.93 37.15 67.07 36.17 66.83 33.36 63.25 33.36 63.72 38.79 70.97 40.93 70.97 37.13"/>
          </g>
          <polygon class="cls-6" points="62.01 20.97 79.77 20.97 79.43 24.44 62.43 24.44 62.01 20.97"/>
          <polygon class="cls-1" points="70.97 20.97 62.01 20.97 62.43 24.44 70.97 24.44 70.97 20.97"/>
        </g>
        <g id="Text">
          <polygon class="cls-8" points="64.45 10.9 64.45 9.2 66.95 9.2 66.95 7.33 62.59 7.33 62.59 12.62 66.95 12.62 66.95 10.9 64.45 10.9"/>
          <path class="cls-8" d="m71.44,9.2h1.75v-1.87h-4.37v1.87c.58.58.89.86,1.73,1.71h-1.73v1.7h4.37v-1.71l-1.75-1.7Z"/>
          <path class="cls-8" d="m77.63,9.2h1.75v-1.87h-4.37v1.87c.58.58.89.86,1.74,1.71h-1.74v1.7h4.37v-1.71l-1.75-1.7Z"/>
        </g>
      </g>
      <g id="html5">
        <circle id="Ellipse-5" data-name="Ellipse" class="cls-10" cx="26.72" cy="26.72" r="26.72"/>
        <g id="Logo">
          <polygon class="cls-8" points="15.11 43.48 12.59 15.26 40.24 15.26 37.72 43.48 26.4 46.62 15.11 43.48"/>
          <polygon class="cls-4" points="26.42 44.22 35.57 41.68 37.72 17.57 26.42 17.57 26.42 44.22"/>
          <g id="_5" data-name="5">
            <polygon class="cls-7" points="26.42 28.04 21.84 28.04 21.52 24.49 26.42 24.49 26.42 21.03 26.4 21.03 17.74 21.03 17.82 21.96 18.67 31.5 26.42 31.5 26.42 28.04"/>
            <polygon class="cls-7" points="26.42 37.03 26.4 37.03 22.55 35.99 22.3 33.23 20.43 33.23 18.83 33.23 19.31 38.66 26.4 40.63 26.42 40.63 26.42 37.03"/>
            <polygon class="cls-10" points="26.4 28.04 26.4 31.5 30.67 31.5 30.27 35.99 26.4 37.03 26.4 40.63 33.5 38.66 33.55 38.08 34.37 28.97 34.45 28.04 33.52 28.04 26.4 28.04"/>
            <polygon class="cls-10" points="26.4 21.03 26.4 23.18 26.4 24.48 26.4 24.49 34.75 24.49 34.75 24.49 34.76 24.49 34.83 23.71 34.99 21.96 35.07 21.03 26.4 21.03"/>
          </g>
          <g id="Text-2" data-name="Text">
            <path class="cls-8" d="m15.17,7.59h1.76v1.74h1.61v-1.74h1.76v5.26h-1.76v-1.76h-1.61v1.76h-1.76v-5.26h0Z"/>
            <path class="cls-8" d="m22.61,9.34h-1.55v-1.75h4.86v1.75h-1.55v3.52h-1.76v-3.52h0Z"/>
            <path class="cls-8" d="m26.68,7.59h1.83l1.13,1.85,1.13-1.85h1.83v5.26h-1.75v-2.61l-1.21,1.87h-.03l-1.21-1.87v2.61h-1.72v-5.26h0Z"/>
            <path class="cls-8" d="m33.48,7.59h1.76v3.52h2.47v1.74h-4.23v-5.26Z"/>
          </g>
        </g>
      </g>
    </g>
  </g>
</svg>