<?xml version="1.0" encoding="UTF-8"?>
<svg id="Layer_2" data-name="Layer 2" xmlns="http://www.w3.org/2000/svg" xmlns:xlink="http://www.w3.org/1999/xlink" viewBox="0 0 187.38 53.45">
  <defs>
    <style>
      .cls-1 {
        isolation: isolate;
      }

      .cls-1, .cls-2 {
        opacity: .05;
      }

      .cls-1, .cls-3, .cls-4, .cls-5, .cls-6, .cls-7, .cls-8, .cls-9, .cls-10, .cls-11 {
        stroke-width: 0px;
      }

      .cls-1, .cls-11 {
        fill: #010101;
      }

      .cls-3 {
        fill: url(#linear-gradient);
      }

      .cls-4 {
        fill: #f7f7f7;
      }

      .cls-5 {
        fill: #6181b7;
      }

      .cls-6 {
        fill: #3d9cd6;
      }

      .cls-7 {
        fill: #e45026;
      }

      .cls-8 {
        fill: #fff;
      }

      .cls-9 {
        fill: #f1682a;
      }

      .cls-10 {
        fill: #04759b;
      }
    </style>
    <linearGradient id="linear-gradient" x1="75.28" y1="-46.45" x2="75.28" y2="-39.36" gradientTransform="translate(0 -18.38) scale(1 -1)" gradientUnits="userSpaceOnUse">
      <stop offset=".39" stop-color="#d2d3d4" stop-opacity="0"/>
      <stop offset="1" stop-color="#d2d3d4"/>
    </linearGradient>
  </defs>
  <g id="Icons">
    <g id="html-css-php-wordpress">
      <g id="wordpress">
        <circle id="Ellipse" class="cls-8" cx="160.65" cy="26.72" r="26.72"/>
        <g id="Logo">
          <path class="cls-10" d="m137.72,26.73c0,9.08,5.27,16.92,12.92,20.64l-10.93-29.97c-1.27,2.86-1.99,6.01-1.99,9.34Z"/>
          <path class="cls-10" d="m176.13,25.57c0-2.83-1.01-4.79-1.89-6.32-1.17-1.89-2.26-3.48-2.26-5.37,0-2.11,1.59-4.07,3.85-4.07.1,0,.19,0,.29.02-4.08-3.73-9.51-6.02-15.48-6.02-8.01,0-15.06,4.11-19.16,10.33.53.02,1.04.03,1.47.03,2.4,0,6.11-.29,6.11-.29,1.23-.07,1.38,1.74.15,1.89,0,0-1.24.15-2.63.22l8.35,24.84,5.01-15.05-3.58-9.79c-1.23-.07-2.41-.22-2.41-.22-1.23-.07-1.09-1.96.15-1.89,0,0,3.79.29,6.04.29,2.4,0,6.11-.29,6.11-.29,1.23-.07,1.38,1.74.15,1.89,0,0-1.24.15-2.63.22l8.29,24.64,2.29-7.64c1.01-3.16,1.77-5.45,1.77-7.41Z"/>
          <path class="cls-10" d="m161.06,28.74l-6.88,19.99c2.06.61,4.23.93,6.48.93,2.67,0,5.23-.46,7.61-1.3-.06-.1-.12-.2-.17-.31l-7.05-19.31Z"/>
          <path class="cls-10" d="m180.77,15.72c.1.73.16,1.51.16,2.36,0,2.32-.43,4.94-1.74,8.21l-7,20.25c6.82-3.97,11.4-11.36,11.4-19.82,0-3.99-1.02-7.73-2.81-11Z"/>
          <path class="cls-10" d="m160.65,0c-14.74,0-26.73,11.99-26.73,26.73s11.99,26.73,26.73,26.73,26.73-11.99,26.73-26.73S175.39,0,160.65,0Zm0,52.23c-14.06,0-25.5-11.44-25.5-25.5S146.59,1.23,160.65,1.23s25.5,11.44,25.5,25.5-11.44,25.5-25.5,25.5Z"/>
        </g>
      </g>
      <g id="php">
        <circle id="Ellipse-2" data-name="Ellipse" class="cls-5" cx="117.16" cy="26.73" r="26.72"/>
        <g id="Logo-2" data-name="Logo">
          <path class="cls-8" d="m105.58,22.75c1.11,0,1.84.2,2.21.61.38.41.45,1.11.26,2.09-.2,1.03-.59,1.78-1.16,2.21s-1.44.65-2.61.65h-1.76l1.09-5.57h1.97Zm-7.07,11.21h2.9l.69-3.53h2.49c1.11,0,1.99-.12,2.7-.36.71-.24,1.34-.61,1.93-1.16.49-.45.89-.95,1.18-1.48s.51-1.13.63-1.78c.32-1.58.08-2.8-.69-3.69s-1.99-1.32-3.67-1.32h-5.59l-2.59,13.32Z"/>
          <path class="cls-8" d="m113.18,17.1h2.88l-.69,3.53h2.57c1.62,0,2.72.28,3.34.85.61.57.79,1.48.55,2.74l-1.2,6.2h-2.92l1.14-5.9c.14-.67.08-1.13-.14-1.36-.22-.24-.71-.38-1.44-.38h-2.31l-1.48,7.64h-2.88l2.59-13.32Z"/>
          <path class="cls-8" d="m127.78,22.75c1.11,0,1.84.2,2.21.61s.45,1.11.26,2.09c-.2,1.03-.59,1.78-1.16,2.21s-1.44.65-2.61.65h-1.76l1.09-5.57h1.97Zm-7.07,11.21h2.9l.69-3.53h2.49c1.11,0,1.99-.12,2.7-.36.71-.24,1.34-.61,1.93-1.16.49-.45.89-.95,1.18-1.48s.51-1.13.63-1.78c.32-1.58.08-2.8-.69-3.69s-1.99-1.32-3.67-1.32h-5.59l-2.59,13.32Z"/>
        </g>
      </g>
      <g id="css">
        <circle id="Ellipse-3" data-name="Ellipse" class="cls-6" cx="70.89" cy="26.73" r="26.72"/>
        <g id="Logo-3" data-name="Logo">
          <polygon class="cls-4" points="82.38 43.86 70.89 46.96 59.4 43.86 56.75 15.14 85.03 15.14 82.38 43.86"/>
          <polygon class="cls-8" points="70.89 17.47 70.89 44.49 70.91 44.5 80.22 41.99 82.36 17.47 70.89 17.47"/>
          <g id="_3" data-name="3">
            <polygon class="cls-6" points="70.88 24.65 62.65 28.07 62.93 31.46 70.88 28.06 79.34 24.44 79.68 20.98 70.88 24.65"/>
            <polygon class="cls-6" points="62.65 28.07 62.93 31.46 70.88 28.06 70.88 24.65 62.65 28.07"/>
            <polygon class="cls-3" points="79.68 20.98 70.88 24.65 70.88 28.06 79.34 24.44 79.68 20.98"/>
            <polygon class="cls-6" points="62.67 28.07 62.94 31.46 75.14 31.5 74.87 36.03 70.85 37.16 67 36.18 66.76 33.37 63.18 33.37 63.64 38.79 70.89 40.94 78.11 38.83 79.04 28.07 62.67 28.07"/>
            <g class="cls-2">
              <polygon class="cls-11" points="70.88 28.07 62.65 28.07 62.93 31.46 70.88 31.49 70.88 28.07"/>
              <polygon class="cls-11" points="70.88 37.14 70.84 37.16 66.98 36.18 66.74 33.37 63.16 33.37 63.63 38.79 70.88 40.94 70.88 37.14"/>
            </g>
            <polygon class="cls-6" points="61.92 20.98 79.68 20.98 79.34 24.44 62.34 24.44 61.92 20.98"/>
            <polygon class="cls-1" points="70.88 20.98 61.92 20.98 62.34 24.44 70.88 24.44 70.88 20.98"/>
          </g>
          <g id="Text">
            <polygon class="cls-8" points="64.37 10.91 64.37 9.21 66.86 9.21 66.86 7.34 62.5 7.34 62.5 12.62 66.86 12.62 66.86 10.91 64.37 10.91"/>
            <path class="cls-8" d="m71.35,9.21h1.75v-1.87h-4.37v1.87c.58.58.89.86,1.73,1.71h-1.73v1.7h4.37v-1.71l-1.75-1.7Z"/>
            <path class="cls-8" d="m77.54,9.21h1.75v-1.87h-4.37v1.87c.58.58.89.86,1.74,1.71h-1.74v1.7h4.37v-1.71l-1.75-1.7Z"/>
          </g>
        </g>
      </g>
      <g id="html">
        <circle id="Ellipse-4" data-name="Ellipse" class="cls-9" cx="26.72" cy="26.73" r="26.72"/>
        <g id="Logo-4" data-name="Logo">
          <polygon class="cls-8" points="15.11 43.49 12.59 15.27 40.24 15.27 37.72 43.49 26.4 46.62 15.11 43.49"/>
          <polygon class="cls-4" points="26.42 44.22 35.57 41.69 37.72 17.58 26.42 17.58 26.42 44.22"/>
          <polygon class="cls-7" points="26.42 28.04 21.84 28.04 21.52 24.5 26.42 24.5 26.42 21.04 26.4 21.04 17.74 21.04 17.82 21.97 18.67 31.5 26.42 31.5 26.42 28.04"/>
          <polygon class="cls-7" points="26.42 37.03 26.4 37.04 22.55 36 22.3 33.24 20.43 33.24 18.83 33.24 19.31 38.67 26.4 40.64 26.42 40.63 26.42 37.03"/>
          <polygon class="cls-9" points="26.4 28.04 26.4 31.5 30.67 31.5 30.27 35.99 26.4 37.04 26.4 40.64 33.5 38.67 33.55 38.09 34.37 28.97 34.45 28.04 33.52 28.04 26.4 28.04"/>
          <polygon class="cls-9" points="26.4 21.04 26.4 23.19 26.4 24.49 26.4 24.5 34.75 24.5 34.75 24.5 34.76 24.5 34.83 23.72 34.99 21.97 35.07 21.04 26.4 21.04"/>
          <path class="cls-8" d="m15.17,7.6h1.76v1.74h1.61v-1.74h1.76v5.26h-1.76v-1.76h-1.61v1.76h-1.76v-5.26h0Z"/>
          <path class="cls-8" d="m22.61,9.35h-1.55v-1.75h4.86v1.75h-1.55v3.52h-1.76v-3.52h0Z"/>
          <path class="cls-8" d="m26.68,7.6h1.83l1.13,1.85,1.13-1.85h1.83v5.26h-1.75v-2.61l-1.21,1.87h-.03l-1.21-1.87v2.61h-1.72v-5.26h0Z"/>
          <path class="cls-8" d="m33.48,7.6h1.76v3.52h2.47v1.74h-4.23v-5.26Z"/>
        </g>
      </g>
    </g>
  </g>
</svg>