<?xml version="1.0" encoding="utf-8"?>
<!-- Generator: Adobe Illustrator 28.0.0, SVG Export Plug-In . SVG Version: 6.00 Build 0)  -->
<svg version="1.1"
	 id="svg60" xmlns:rdf="http://www.w3.org/1999/02/22-rdf-syntax-ns#" xmlns:cc="http://creativecommons.org/ns#" xmlns:dc="http://purl.org/dc/elements/1.1/" xmlns:svg="http://www.w3.org/2000/svg"
	 xmlns="http://www.w3.org/2000/svg" xmlns:xlink="http://www.w3.org/1999/xlink" x="0px" y="0px" viewBox="0 0 453 340"
	 style="enable-background:new 0 0 453 340;" xml:space="preserve">
<style type="text/css">
	.st0{fill:#2D82F7;}
</style>
<g id="g18" transform="matrix(18.510943,0,0,18.510943,0,-0.11106566)">
	<path id="path8" class="st0" d="M1.7,18.4h3.9V8.9L0,4.7v12C0,17.6,0.7,18.4,1.7,18.4z"/>
	<path id="path10" class="st0" d="M18.9,18.4h3.9c0.9,0,1.7-0.7,1.7-1.7v-12l-5.6,4.2V18.4z"/>
	<path id="path12" class="st0" d="M18.9,1.7v7.2l5.6-4.2V2.5C24.5,1.1,23.4,0,22,0c-0.5,0-1.1,0.2-1.5,0.5L18.9,1.7z"/>
	<path id="path14" class="st0" d="M5.6,8.9V1.7l6.7,5l6.7-5v7.2l-6.7,5L5.6,8.9z"/>
	<path id="path16" class="st0" d="M0,2.5v2.2l5.6,4.2V1.7L4,0.5C2.9-0.3,1.3-0.1,0.5,1C0.2,1.5,0,2,0,2.5z"/>
</g>
</svg>
