<?xml version="1.0" encoding="UTF-8"?>
<svg id="Layer_2" data-name="Layer 2" xmlns="http://www.w3.org/2000/svg" viewBox="0 0 54.81 53.44">
  <defs>
    <style>
      .cls-1 {
        fill: none;
      }

      .cls-1, .cls-2, .cls-3, .cls-4, .cls-5 {
        stroke-width: 0px;
      }

      .cls-2 {
        fill: #4fa847;
      }

      .cls-3 {
        fill: #4eaa47;
      }

      .cls-4 {
        fill: #293138;
      }

      .cls-5 {
        fill: #fff;
      }
    </style>
  </defs>
  <g id="Icons">
    <g id="bash_terminal" data-name="bash terminal">
      <path class="cls-3" d="m9.71,0h35.4c5.37,0,9.71,4.34,9.71,9.71v34.03c0,5.37-4.34,9.71-9.71,9.71H9.71c-5.37,0-9.71-4.34-9.71-9.71V9.71C0,4.34,4.34,0,9.71,0Z"/>
      <g id="Logo">
        <rect class="cls-1" x="5.41" y="5.05" width="42.06" height="42.06"/>
        <g>
          <path class="cls-5" d="m42.28,13.64l-13.28-7.88c-1.58-.94-3.54-.94-5.12,0l-13.28,7.88c-1.58.94-2.56,2.68-2.56,4.56v15.77c0,1.88.98,3.62,2.56,4.56l13.28,7.88c.79.47,1.68.71,2.56.71s1.77-.23,2.56-.71l13.28-7.88c1.58-.94,2.56-2.68,2.56-4.56v-15.77c0-1.88-.98-3.62-2.56-4.56Z"/>
          <path class="cls-4" d="m42.28,13.64l-13.28-7.88c-.79-.47-1.68-.71-2.56-.71s-1.77.24-2.56.71l-13.28,7.88c-1.58.94-2.56,2.68-2.56,4.56v15.77c0,1.88.98,3.62,2.56,4.56l13.28,7.88c.79.47,1.68.71,2.56.71s1.77-.23,2.56-.71l13.28-7.88c1.58-.94,2.56-2.68,2.56-4.56v-15.77c0-1.88-.98-3.62-2.56-4.56Zm-17.94,31.96l-13.28-7.88c-1.3-.77-2.11-2.21-2.11-3.75v-15.77c0-1.54.81-2.98,2.11-3.75l13.28-7.88c.64-.38,1.36-.58,2.1-.58s1.46.2,2.1.58l13.28,7.88c1.09.65,1.83,1.77,2.04,3.04-.44-.94-1.43-1.2-2.59-.52l-12.56,7.76c-1.57.92-2.72,1.94-2.72,3.83v15.48c0,1.13.46,1.86,1.16,2.08-.23.04-.46.07-.7.07-.74,0-1.46-.2-2.1-.58Z"/>
          <path class="cls-2" d="m38.8,35.49l-3.31,1.98c-.09.05-.15.11-.15.21v.87c0,.11.07.15.16.1l3.36-2.04c.09-.05.1-.15.1-.25v-.76c0-.11-.07-.15-.16-.1Z"/>
          <path class="cls-5" d="m31.75,28.2c.11-.05.2.01.2.15v1.14c.49-.19.91-.24,1.28-.15.08.02.12.13.08.27l-.25,1.01c-.02.08-.06.15-.11.2-.02.02-.04.04-.07.05-.03.02-.07.02-.1.02-.17-.04-.58-.13-1.22.2-.68.34-.91.93-.91,1.36,0,.52.27.68,1.19.69,1.23.02,1.76.56,1.77,1.79.01,1.21-.64,2.52-1.63,3.32l.02,1.13c0,.14-.09.29-.19.35l-.67.39c-.11.05-.2-.01-.2-.15v-1.11c-.59.24-1.17.3-1.54.15-.07-.03-.1-.13-.07-.25l.24-1.02c.02-.08.06-.16.12-.21.02-.02.04-.04.06-.05.04-.02.08-.02.11-.01.4.13.91.07,1.41-.18.63-.32,1.04-.96,1.04-1.59,0-.58-.32-.81-1.08-.82-.96,0-1.86-.19-1.88-1.61-.01-1.17.6-2.39,1.56-3.15v-1.14c-.01-.14.07-.29.18-.35l.65-.41Z"/>
        </g>
      </g>
    </g>
  </g>
</svg>