<?xml version="1.0" encoding="UTF-8"?>
<svg id="Layer_2" data-name="Layer 2" xmlns="http://www.w3.org/2000/svg" viewBox="0 0 54.81 53.44">
  <defs>
    <style>
      .cls-1 {
        stroke: #7f3f98;
      }

      .cls-1, .cls-2 {
        fill: #6552a2;
      }

      .cls-2, .cls-3 {
        stroke-width: 0px;
      }

      .cls-3 {
        fill: #fff;
      }
    </style>
  </defs>
  <g id="Icons">
    <g id="bootstrap">
      <path class="cls-2" d="m9.71,0h35.4c5.37,0,9.71,4.34,9.71,9.71v34.03c0,5.37-4.34,9.71-9.71,9.71H9.71c-5.37,0-9.71-4.34-9.71-9.71V9.71C0,4.34,4.34,0,9.71,0Z"/>
      <g id="Logo">
        <path class="cls-3" d="m10.5,14.46c-.08-2.37,1.76-4.55,4.25-4.55h25.54c2.49,0,4.34,2.18,4.25,4.55-.08,2.27.02,5.22.76,7.62.74,2.41,2,3.93,4.05,4.13v2.22c-2.05.2-3.31,1.72-4.05,4.13-.74,2.4-.84,5.35-.76,7.62.08,2.37-1.76,4.55-4.25,4.55H14.75c-2.49,0-4.34-2.18-4.25-4.55.08-2.27-.02-5.22-.77-7.62-.74-2.41-2-3.93-4.05-4.13v-2.22c2.05-.2,3.31-1.72,4.05-4.13.74-2.4.84-5.35.76-7.62Z"/>
        <path class="cls-1" d="m28.47,36.57c4.04,0,6.47-1.98,6.47-5.24,0-2.46-1.74-4.25-4.31-4.53v-.1c1.89-.31,3.38-2.07,3.38-4.03,0-2.8-2.21-4.62-5.57-4.62h-7.57v18.52h7.61Zm-4.67-16.17h3.92c2.13,0,3.34.95,3.34,2.67,0,1.83-1.41,2.86-3.96,2.86h-3.3v-5.53Zm0,13.82v-6.09h3.89c2.79,0,4.23,1.03,4.23,3.03s-1.41,3.07-4.06,3.07h-4.06Z"/>
      </g>
    </g>
  </g>
</svg>