<?xml version="1.0" encoding="UTF-8"?>
<svg id="Layer_2" data-name="Layer 2" xmlns="http://www.w3.org/2000/svg" viewBox="0 0 54.81 53.44">
  <defs>
    <style>
      .cls-1 {
        fill: #35c0c9;
      }

      .cls-1, .cls-2 {
        stroke-width: 0px;
      }

      .cls-2 {
        fill: #fff;
      }
    </style>
  </defs>
  <g id="Icons">
    <g id="canva">
      <path class="cls-1" d="m9.71,0h35.4c5.37,0,9.71,4.34,9.71,9.71v34.03c0,5.37-4.34,9.71-9.71,9.71H9.71c-5.37,0-9.71-4.34-9.71-9.71V9.71C0,4.34,4.34,0,9.71,0Z"/>
      <path id="logo" class="cls-2" d="m36.7,32.75c-1.35,1.49-3.25,2.24-4.13,2.24-1.02,0-1.56-.61-1.69-1.56-.07-.34,0-.75.07-1.08.34-2.1,1.08-3.45,1.08-3.79,0-.14-.07-.2-.14-.2-.68,0-2.98,2.37-3.32,3.93l-.27,1.29c-.2.88-1.02,1.42-1.63,1.42-.27,0-.47-.14-.54-.47v-.41l.14-.68c-1.22.95-2.57,1.56-3.18,1.56-.88,0-1.35-.47-1.49-1.15-.54.75-1.29,1.15-2.1,1.15-1.02,0-1.96-.68-2.44-1.69-.68.75-1.49,1.49-2.44,2.1-1.42.88-2.98,1.63-4.81,1.63-1.69,0-3.18-.88-3.93-1.63-1.22-1.08-1.83-2.78-2.03-4.27-.61-4.74,2.3-11.04,6.84-13.75,1.02-.61,2.17-.95,3.25-.95,2.17,0,3.79,1.56,4,3.39.2,1.69-.47,3.12-2.3,4-.95.47-1.42.47-1.56.2-.07-.14-.07-.41.14-.54,1.76-1.42,1.76-2.64,1.56-4.33-.14-1.08-.81-1.76-1.63-1.76-3.52,0-8.4,7.65-7.72,13.21.27,2.17,1.63,4.67,4.33,4.67.88,0,1.9-.27,2.71-.68,1.49-.75,2.37-1.35,3.18-2.37-.2-2.57,2.03-5.83,5.28-5.83,1.42,0,2.57.54,2.71,1.69.2,1.42-1.02,1.69-1.49,1.69-.41,0-1.02-.14-1.08-.47-.07-.41.88-.2.75-1.08-.07-.54-.68-.75-1.22-.75-2.03,0-3.18,2.84-2.98,4.61.07.81.54,1.63,1.22,1.63.61,0,1.49-.88,1.76-2.1.2-.88,1.02-1.42,1.63-1.42.34,0,.54.14.54.47v.41c-.07.34-.34,1.63-.34,1.83s.14.54.54.54c.34,0,1.42-.61,2.51-1.56.34-1.69.75-3.79.75-3.93.14-.68.41-1.42,1.76-1.42.27,0,.47.14.54.47v.41l-.34,1.83c1.22-1.63,3.12-2.84,4.27-2.84.47,0,.88.27.95.75.07.27-.07.75-.2,1.29-.41,1.08-.88,2.78-1.15,4.2-.07.34.07.75.61.75.47,0,1.9-.54,3.05-2.1v-.68c0-1.22.07-2.17.34-2.91.2-.75,1.15-1.42,1.76-1.42.34,0,.54.2.54.54,0,.14,0,.27-.07.41-.41,1.29-.68,2.44-.68,3.59,0,.68.14,1.69.27,2.24,0,.14.07.2.2.2.2,0,1.56-1.29,2.51-2.91-.88-.54-1.35-1.56-1.35-2.78,0-2.03,1.22-3.12,2.44-3.12.95,0,1.76.68,1.76,2.03,0,.88-.34,1.83-.81,2.78h.27c.75,0,1.29-.34,1.63-.75.14-.14.27-.27.41-.34.95-1.15,2.37-1.96,4-1.96,1.42,0,2.57.54,2.71,1.69.2,1.42-1.08,1.76-1.49,1.76s-1.08-.14-1.08-.47c-.07-.34.88-.2.81-1.08-.07-.54-.68-.81-1.22-.81-1.9,0-3.18,2.51-2.98,4.61.07.81.47,1.63,1.22,1.63.61,0,1.49-.88,1.83-2.1.2-.81,1.02-1.42,1.63-1.42.27,0,.54.14.54.47,0,.2-.07.54-.34,1.9-.14.54-.14,1.08-.14,1.42.14.81.47,1.35.81,1.69.14.14.2.27.2.34,0,.2-.14.41-.41.41-.07,0-.2,0-.27-.07-1.49-.61-2.1-1.63-2.24-2.51-.54.75-1.29,1.08-2.1,1.08-1.29,0-2.57-1.15-2.78-2.64-.07-.61,0-1.29.2-1.9-.54.34-1.08.54-1.63.54h-.47c-1.29,1.83-2.64,3.12-3.66,3.73-.41.2-.81.34-1.08.34-.2,0-.47-.07-.61-.27-.41-.27-.61-.95-.68-1.76h0Zm4.61-6.1c0,.81.41,1.63.88,2.17.2-.54.34-1.08.34-1.63,0-1.02-.41-1.49-.68-1.49-.41,0-.54.54-.54.95Z"/>
    </g>
  </g>
</svg>