<?xml version="1.0" encoding="UTF-8"?>
<svg id="Layer_2" data-name="Layer 2" xmlns="http://www.w3.org/2000/svg" viewBox="0 0 54.81 53.44">
  <defs>
    <style>
      .cls-1 {
        fill: #079cd8;
      }

      .cls-1, .cls-2 {
        stroke-width: 0px;
      }

      .cls-2 {
        fill: #fff;
      }
    </style>
  </defs>
  <g id="Icons">
    <g id="docker">
      <path class="cls-1" d="m9.71,0h35.4c5.37,0,9.71,4.34,9.71,9.71v34.03c0,5.37-4.34,9.71-9.71,9.71H9.71c-5.37,0-9.71-4.34-9.71-9.71V9.71C0,4.34,4.34,0,9.71,0Z"/>
      <g id="Logo">
        <rect class="cls-2" x="25.66" y="11.11" width="4.41" height="4.41"/>
        <rect class="cls-2" x="25.66" y="16.66" width="4.41" height="4.41"/>
        <rect class="cls-2" x="25.66" y="22.2" width="4.41" height="4.41"/>
        <rect class="cls-2" x="20.31" y="16.66" width="4.41" height="4.41"/>
        <rect class="cls-2" x="20.31" y="22.2" width="4.41" height="4.41"/>
        <rect class="cls-2" x="14.96" y="16.66" width="4.41" height="4.41"/>
        <rect class="cls-2" x="14.96" y="22.2" width="4.41" height="4.41"/>
        <rect class="cls-2" x="9.67" y="22.2" width="4.41" height="4.41"/>
        <rect class="cls-2" x="31.02" y="22.2" width="4.41" height="4.41"/>
        <path class="cls-2" d="m21.59,42.33c-16.24,0-14.35-14.3-14.35-14.3h27.11c4.57,0,6.08-1.45,6.08-1.45,0,0-2.58-3.34.44-7.37,3.4,1.95,3.28,4.85,3.28,4.85,0,0,3.46-1.13,5.61.82-1.2,3.91-6.49,3.65-6.49,3.65,0,0-4.91,13.8-21.68,13.8Z"/>
      </g>
    </g>
  </g>
</svg>