<?xml version="1.0" encoding="UTF-8"?>
<svg id="Layer_2" data-name="Layer 2" xmlns="http://www.w3.org/2000/svg" viewBox="0 0 54.81 53.44">
  <defs>
    <style>
      .cls-1 {
        fill: #de4c35;
      }

      .cls-1, .cls-2 {
        stroke-width: 0px;
      }

      .cls-2 {
        fill: #fff;
      }
    </style>
  </defs>
  <g id="Icons">
    <g id="git">
      <path class="cls-1" d="m9.71,0h35.4c5.37,0,9.71,4.34,9.71,9.71v34.03c0,5.37-4.34,9.71-9.71,9.71H9.71c-5.37,0-9.71-4.34-9.71-9.71V9.71C0,4.34,4.34,0,9.71,0Z"/>
      <g id="Logo">
        <path class="cls-2" d="m46.35,25.2L29.16,8.25c-.99-.98-2.59-.98-3.59,0l-3.57,3.52,4.53,4.47c1.05-.35,2.26-.12,3.1.71.84.83,1.08,2.03.72,3.07l4.36,4.3c1.06-.36,2.27-.13,3.12.71,1.18,1.16,1.18,3.04,0,4.21-1.18,1.16-3.09,1.16-4.27,0-.89-.88-1.11-2.16-.66-3.24l-4.07-4.01v10.56c.29.14.56.33.8.56,1.18,1.16,1.18,3.04,0,4.21-1.18,1.16-3.09,1.16-4.27,0-1.18-1.16-1.18-3.05,0-4.21.29-.29.63-.5.99-.65v-10.66c-.36-.14-.7-.36-.99-.65-.89-.88-1.11-2.17-.65-3.25l-4.46-4.4-11.79,11.62c-.99.98-.99,2.56,0,3.54l17.19,16.95c.99.98,2.59.98,3.59,0l17.11-16.87c.99-.98.99-2.56,0-3.54"/>
      </g>
    </g>
  </g>
</svg>