<?xml version="1.0" encoding="UTF-8"?>
<svg id="Layer_2" data-name="Layer 2" xmlns="http://www.w3.org/2000/svg" viewBox="0 0 54.81 53.44">
  <defs>
    <style>
      .cls-1 {
        fill: #fff;
      }

      .cls-1, .cls-2 {
        stroke-width: 0px;
      }

      .cls-2 {
        fill: #01405d;
      }
    </style>
  </defs>
  <g id="Icons">
    <g id="github">
      <path class="cls-2" d="m9.71,0h35.4c5.37,0,9.71,4.34,9.71,9.71v34.03c0,5.37-4.34,9.71-9.71,9.71H9.71c-5.37,0-9.71-4.34-9.71-9.71V9.71C0,4.34,4.34,0,9.71,0Z"/>
      <g id="Logo">
        <path class="cls-1" d="m47.77,27.26c0-11.25-9.12-20.36-20.36-20.36S7.04,16.01,7.04,27.26c0,8.93,5.74,16.51,13.74,19.26.49-.35,1.05-.79,1.05-1.52,0-1.12-.02-4-.02-4,0,0-.88.15-2.15.15-3.18,0-4.18-2.02-4.66-3.15-.62-1.47-1.43-2.16-2.29-2.71-.53-.34-.65-.74-.04-.85,2.81-.53,3.53,3.17,5.41,3.76,1.34.42,3.07.24,3.92-.31.11-1.13.93-2.11,1.61-2.62-4.78-.46-7.61-2.11-9.08-4.76l-.16-.3-.37-.84-.11-.3c-.46-1.35-.66-2.89-.66-4.61,0-3.06.96-4.21,2.25-5.84-.98-3.49.35-5.87.35-5.87,0,0,2.07-.43,5.98,2.36,2.12-.9,7.77-.98,10.44-.2,1.64-1.08,4.64-2.61,5.85-2.18.33.52,1.03,2.06.43,5.42.41.74,2.55,2.31,2.56,6.75-.03,1.64-.21,3.02-.52,4.19l-.18.6s-.1.28-.21.55l-.13.3c-1.42,3.1-4.33,4.25-9.02,4.73,1.52.95,1.96,2.15,1.96,5.39s-.04,3.67-.03,4.42c0,.66.54,1.13,1.01,1.49,8.03-2.73,13.8-10.33,13.8-19.28Z"/>
      </g>
    </g>
  </g>
</svg>