<?xml version="1.0" encoding="UTF-8"?>
<svg id="Layer_2" data-name="Layer 2" xmlns="http://www.w3.org/2000/svg" viewBox="0 0 54.81 53.44">
  <defs>
    <style>
      .cls-1 {
        fill: #f7f7f7;
      }

      .cls-1, .cls-2, .cls-3, .cls-4 {
        stroke-width: 0px;
      }

      .cls-2 {
        fill: #e45026;
      }

      .cls-3 {
        fill: #fff;
      }

      .cls-4 {
        fill: #f1682a;
      }
    </style>
  </defs>
  <g id="Icons">
    <g id="html5">
      <path class="cls-4" d="m9.71,0h35.4c5.37,0,9.71,4.34,9.71,9.71v34.03c0,5.37-4.34,9.71-9.71,9.71H9.71c-5.37,0-9.71-4.34-9.71-9.71V9.71C0,4.34,4.34,0,9.71,0Z"/>
      <g id="Logo">
        <polygon class="cls-3" points="16.1 43.1 13.58 14.88 41.23 14.88 38.71 43.09 27.39 46.23 16.1 43.1"/>
        <polygon class="cls-1" points="27.41 43.83 36.55 41.3 38.71 17.19 27.41 17.19 27.41 43.83"/>
        <polygon class="cls-2" points="27.41 27.65 22.83 27.65 22.51 24.11 27.41 24.11 27.41 20.65 27.39 20.65 18.73 20.65 18.81 21.57 19.66 31.11 27.41 31.11 27.41 27.65"/>
        <polygon class="cls-2" points="27.41 36.64 27.39 36.64 23.54 35.6 23.29 32.84 21.42 32.84 19.81 32.84 20.3 38.28 27.39 40.24 27.41 40.24 27.41 36.64"/>
        <polygon class="cls-4" points="27.39 27.65 27.39 31.11 31.65 31.11 31.25 35.6 27.39 36.64 27.39 40.24 34.49 38.28 34.54 37.69 35.35 28.58 35.44 27.65 34.51 27.65 27.39 27.65"/>
        <polygon class="cls-4" points="27.39 20.65 27.39 22.8 27.39 24.1 27.39 24.11 35.74 24.11 35.74 24.11 35.75 24.11 35.82 23.33 35.98 21.57 36.06 20.65 27.39 20.65"/>
        <path class="cls-3" d="m16.15,7.21h1.76v1.74h1.61v-1.74h1.76v5.26h-1.76v-1.76h-1.61v1.76h-1.76v-5.26h0Z"/>
        <path class="cls-3" d="m23.59,8.95h-1.55v-1.75h4.86v1.75h-1.55v3.52h-1.76v-3.52h0Z"/>
        <path class="cls-3" d="m27.67,7.21h1.83l1.13,1.85,1.13-1.85h1.83v5.26h-1.75v-2.61l-1.21,1.87h-.03l-1.21-1.87v2.61h-1.72v-5.26h0Z"/>
        <path class="cls-3" d="m34.47,7.21h1.76v3.52h2.47v1.74h-4.23v-5.26Z"/>
      </g>
    </g>
  </g>
</svg>