<?xml version="1.0" encoding="UTF-8"?>
<svg id="Layer_2" data-name="Layer 2" xmlns="http://www.w3.org/2000/svg" viewBox="0 0 54.81 53.44">
  <defs>
    <style>
      .cls-1 {
        fill: #f89922;
      }

      .cls-1, .cls-2, .cls-3 {
        stroke-width: 0px;
      }

      .cls-2 {
        fill: #301111;
      }

      .cls-3 {
        fill: #fff;
      }
    </style>
  </defs>
  <g id="Icons">
    <g id="illustrator">
      <path class="cls-1" d="m9.71,0h35.4c5.37,0,9.71,4.34,9.71,9.71v34.03c0,5.37-4.34,9.71-9.71,9.71H9.71c-5.37,0-9.71-4.34-9.71-9.71V9.71C0,4.34,4.34,0,9.71,0Z"/>
      <path class="cls-2" d="m11.87,3.27h31.06c4.71,0,8.52,3.81,8.52,8.52v29.86c0,4.71-3.81,8.52-8.52,8.52H11.87c-4.71,0-8.52-3.81-8.52-8.52V11.79C3.36,7.08,7.16,3.27,11.87,3.27Z"/>
      <g id="Outlined_Mnemonics_Logos" data-name="Outlined Mnemonics Logos">
        <g id="Ai">
          <path class="cls-3" d="m26.67,31.34h-7.35l-1.5,4.64c-.04.18-.2.3-.38.28h-3.72c-.22,0-.28-.12-.22-.36l6.36-18.32c.06-.2.12-.41.2-.65.08-.41.12-.85.12-1.28-.02-.1.06-.2.16-.22h5.12c.16,0,.24.06.26.16l7.21,20.35c.06.22,0,.32-.2.32h-4.13c-.14.02-.28-.08-.32-.22l-1.62-4.7Zm-6.2-4.01h5.02c-.12-.41-.28-.91-.45-1.42-.18-.53-.36-1.11-.53-1.7-.2-.61-.38-1.21-.57-1.82s-.38-1.19-.53-1.76c-.16-.55-.3-1.07-.43-1.54h-.04c-.18.85-.4,1.7-.67,2.55-.3.95-.59,1.94-.91,2.92-.28,1.01-.57,1.94-.87,2.77h0Z"/>
          <path class="cls-3" d="m37.25,18.82c-.65.02-1.28-.24-1.76-.69-.45-.49-.69-1.15-.67-1.82-.02-.67.24-1.3.71-1.76.47-.45,1.11-.69,1.76-.69.77,0,1.36.24,1.8.69.43.47.67,1.11.65,1.76.02.67-.22,1.32-.69,1.82-.45.47-1.13.73-1.8.69Zm-2.21,17.15v-15.22c0-.2.08-.28.26-.28h3.91c.18,0,.26.1.26.28v15.22c0,.22-.08.32-.26.32h-3.87c-.2,0-.3-.12-.3-.32Z"/>
        </g>
      </g>
    </g>
  </g>
</svg>