<?xml version="1.0" encoding="UTF-8"?>
<svg id="Layer_2" data-name="Layer 2" xmlns="http://www.w3.org/2000/svg" viewBox="0 0 54.81 53.44">
  <defs>
    <style>
      .cls-1 {
        fill: #f7f7f7;
      }

      .cls-1, .cls-2, .cls-3, .cls-4, .cls-5 {
        stroke-width: 0px;
      }

      .cls-2 {
        fill: #efbf1f;
      }

      .cls-3 {
        fill: #fff;
      }

      .cls-4 {
        fill: #f0bf20;
      }

      .cls-5 {
        fill: #e6a329;
      }
    </style>
  </defs>
  <g id="Icons">
    <g id="javascript">
      <path class="cls-2" d="m9.71,0h35.4c5.37,0,9.71,4.34,9.71,9.71v34.03c0,5.37-4.34,9.71-9.71,9.71H9.71c-5.37,0-9.71-4.34-9.71-9.71V9.71C0,4.34,4.34,0,9.71,0Z"/>
      <g id="Logo">
        <polygon class="cls-1" points="41.43 14.48 27.41 14.48 27.41 14.48 13.38 14.48 16.01 43 27.41 46.23 27.41 46.23 27.41 46.23 27.41 46.23 27.41 46.23 38.8 43 41.43 14.48"/>
        <polygon class="cls-3" points="27.41 16.8 27.41 43.82 27.41 43.82 36.64 41.2 38.88 16.8 27.41 16.8"/>
        <g>
          <polygon class="cls-4" points="34.75 20.3 20.55 20.3 19.56 30.98 19.59 30.91 31.65 30.91 31.25 35.43 27.41 36.54 23.5 35.41 23.27 32.68 19.72 32.68 20.23 38.14 27.41 40.18 34.58 38.14 35.57 27.42 22.78 27.42 22.94 23.85 31.82 23.85 31.95 25.89 35.53 25.89 34.75 20.3"/>
          <path class="cls-5" d="m27.41,20.3h-6.85l-.99,10.68.02-.07h7.82v-3.49h-4.14l.16-3.57h3.97v-3.55Zm-4.14,12.38h-3.55l.51,5.46,7.18,2.03v-3.64l-3.91-1.13-.23-2.73Z"/>
        </g>
        <g>
          <polygon class="cls-3" points="24.68 10.27 22.18 10.27 22.18 12.06 24.68 12.06 26.01 12.06 26.46 12.06 26.46 6.74 24.68 6.74 24.68 10.27"/>
          <path class="cls-3" d="m32.63,6.77h-4.35v1.86c.58.58.89.86,1.73,1.7-.49,0-1.73,0-1.73,0v1.7h4.35v-1.7l-1.74-1.7h1.74v-1.86Z"/>
        </g>
      </g>
    </g>
  </g>
</svg>