<?xml version="1.0" encoding="UTF-8"?>
<svg id="Layer_2" data-name="Layer 2" xmlns="http://www.w3.org/2000/svg" viewBox="0 0 54.81 53.44">
  <defs>
    <style>
      .cls-1 {
        fill: none;
        stroke: #d33a33;
        stroke-miterlimit: 5;
        stroke-width: 2.5px;
      }

      .cls-2 {
        fill: #1d1919;
      }

      .cls-2, .cls-3, .cls-4, .cls-5, .cls-6, .cls-7, .cls-8, .cls-9, .cls-10, .cls-11, .cls-12, .cls-13 {
        fill-rule: evenodd;
      }

      .cls-2, .cls-3, .cls-4, .cls-5, .cls-6, .cls-7, .cls-8, .cls-9, .cls-10, .cls-11, .cls-12, .cls-13, .cls-14, .cls-15, .cls-16, .cls-17, .cls-18 {
        stroke-width: 0px;
      }

      .cls-3 {
        fill: #6e6c6e;
      }

      .cls-4, .cls-15 {
        fill: #231f20;
      }

      .cls-5 {
        fill: #345162;
      }

      .cls-6 {
        fill: #82b1c4;
      }

      .cls-7 {
        fill: #49738c;
      }

      .cls-8 {
        fill: #dcd9d8;
      }

      .cls-9 {
        fill: #d33a33;
      }

      .cls-10, .cls-18 {
        fill: #ef3f3b;
      }

      .cls-11, .cls-17 {
        fill: #fff;
      }

      .cls-12 {
        fill: #f1d7b8;
      }

      .cls-13, .cls-14 {
        fill: #f7e4ce;
      }

      .cls-16 {
        fill: #d63532;
      }
    </style>
  </defs>
  <g id="Icons">
    <g id="Jenkins">
      <path class="cls-16" d="m9.71,0h35.4c5.37,0,9.71,4.34,9.71,9.71v34.03c0,5.37-4.34,9.71-9.71,9.71H9.71c-5.37,0-9.71-4.34-9.71-9.71V9.71C0,4.34,4.34,0,9.71,0Z"/>
      <g id="g10">
        <g id="g3393">
          <path id="path22" class="cls-11" d="m42.3,26.97c0,8.49-6.73,15.37-15.03,15.37s-15.03-6.88-15.03-15.37,6.73-15.37,15.03-15.37,15.03,6.88,15.03,15.37"/>
          <path id="path24" class="cls-18" d="m12.85,30.78s-1.09-16.03,13.68-16.49l-1.03-1.72-8.02,2.69-2.29,2.63-2,3.84-1.15,4.47.34,2.98"/>
          <path id="path26" class="cls-15" d="m16.98,16.48c-2.64,2.7-4.27,6.42-4.27,10.54h0c0,4.12,1.63,7.85,4.27,10.54h0c2.64,2.7,6.27,4.36,10.29,4.36h0c4.02,0,7.66-1.66,10.29-4.36h0c2.64-2.7,4.27-6.42,4.27-10.54h0c0-4.12-1.63-7.85-4.27-10.54h0c-2.64-2.7-6.27-4.36-10.29-4.36h0c-4.02,0-7.66,1.66-10.29,4.36h0Zm-.67,21.74c-2.8-2.87-4.54-6.83-4.54-11.2h0c0-4.37,1.73-8.33,4.54-11.2h0c2.8-2.87,6.68-4.64,10.96-4.64h0c4.28,0,8.16,1.78,10.96,4.64h0c2.8,2.87,4.54,6.83,4.54,11.2h0c0,4.37-1.73,8.33-4.54,11.2h0c-2.8,2.87-6.68,4.64-10.96,4.64h0c-4.28,0-8.16-1.78-10.96-4.64h0"/>
          <path id="path28" class="cls-12" d="m33.6,27.06l-2.29.34-3.09.34-2,.06-1.95-.06-1.49-.46-1.32-1.43-1.03-2.92-.23-.63-1.37-.46-.8-1.32-.57-1.89.63-1.66,1.49-.52,1.2.57.57,1.26.69-.11.23-.29-.23-1.32-.06-1.66.34-2.29v-1.31s1.03-1.67,1.03-1.67l1.83-1.32,3.21-1.37,3.55.52,3.09,2.23,1.43,2.29.92,1.66.23,4.12-.69,3.55-1.26,3.15-1.2,1.66"/>
          <path id="path30" class="cls-5" d="m31.65,36.96l-8.19.34v1.37l.69,4.81-.34.4-5.73-1.95-.4-.69-.57-6.47-1.32-3.89-.29-.92,4.58-3.15,1.43-.57,1.26,1.55,1.09.97,1.26.4.57.17.69,2.98.52.63,1.32-.46-.92,1.78,4.98,2.35-.63.34"/>
          <path id="path32" class="cls-3" d="m18.08,16.98l1.49-.52,1.2.57.57,1.26.69-.11.17-.69-.34-1.32.34-3.15-.29-1.72,1.03-1.2,2.23-1.77-.63-.86-3.15,1.55-1.32,1.03-.74,1.6-1.15,1.55-.34,1.83.23,1.95"/>
          <path id="path34" class="cls-8" d="m20.43,11.6s.86-2.12,4.29-3.15c3.44-1.03.17-.74.17-.74l-3.72,1.43-1.43,1.43-.63,1.15,1.32-.11"/>
          <path id="path36" class="cls-8" d="m18.71,16.58s-1.2-4.01,3.38-4.58l-.17-.69-3.15.74-.92,2.98.23,1.95.63-.4"/>
          <path id="path38" class="cls-13" d="m20.54,21.9l.75-.73s.34.04.4.44c.06.4.23,4.01,2.69,5.95.22.18-1.83-.29-1.83-.29l-1.83-2.86"/>
          <path id="path40" class="cls-13" d="m31.08,20.81s.13-1.74.6-1.6c.47.13.47.6.47.6,0,0-1.14.73-1.07,1"/>
          <path id="path42" class="cls-14" d="m35.83,14.46s-.94.2-1.03,1.03c-.09.83,1.03.17,1.2.11"/>
          <path id="path44" class="cls-14" d="m28.9,14.52s-1.26.17-1.26.97,1.43.74,1.83.4"/>
          <path id="path46" class="cls-13" d="m21.12,18.24s-2.18-1.32-2.4-.06c-.23,1.26-.74,2.18.34,3.49l-.74-.23-.69-1.77-.23-1.72,1.32-1.37,1.49.11.86.69.06.86"/>
          <path id="path48" class="cls-13" d="m22.15,14.63s.97-5.04,5.9-6.01c4.05-.8,6.18.17,6.99,1.09,0,0-3.61-4.29-7.04-2.98-3.44,1.32-5.95,3.72-5.9,5.27.1,2.63.06,2.63.06,2.63"/>
          <path id="path50" class="cls-13" d="m35.43,10.28s-1.66-.06-1.72,1.43c0,0,0,.23.11.46,0,0,1.32-1.49,2.12-.69"/>
          <path id="path52" class="cls-13" d="m28.16,12.32s-.29-2.29-2.23-.96c-1.26.86-1.15,2.06-.92,2.29.23.23.17.69.34.37.17-.32.12-1.35.75-1.63.63-.29,1.66-.61,2.06-.07"/>
          <path id="path54" class="cls-7" d="m22.78,27.8l-5.38,2.4s2.23,8.87,1.09,11.62l-.8-.29-.06-3.38-1.49-6.41-.63-1.78,5.61-3.78,1.66,1.6"/>
          <path id="path56" class="cls-7" d="m23.33,32.71l.76.93v3.44h-.92s-.11-2.4-.11-2.69.11-1.32.11-1.32"/>
          <path id="path58" class="cls-7" d="m23.35,37.59l-2.58.11.74.52,1.83.29"/>
          <path id="path60" class="cls-5" d="m32.17,37.02l2.12-.06.52,5.27-2.18.29-.46-5.5"/>
          <path id="path62" class="cls-5" d="m32.74,37.02l3.21-.17s1.32-3.32,1.32-3.49,1.15-4.81,1.15-4.81l-2.58-2.69-.52-.46-1.37,1.37v5.32l-1.2,4.92"/>
          <path id="path64" class="cls-7" d="m34.17,36.62l-2,.4.29,1.6c.74.34,2-.57,2-.57"/>
          <path id="path66" class="cls-7" d="m34.23,26.6l4.01,2.98.11-1.37-3.03-2.81-1.09,1.2"/>
          <path id="path68" class="cls-11" d="m25.34,48.3l-1.19-4.81-.59-3.55-.1-2.63,5.37-.29h3.34s-.3,6.01-.3,6.01l.52,4.64-.06.86-4.35.34-2.63-.57"/>
          <path id="path70" class="cls-8" d="m31.42,36.96s-.29,5.95.57,10.19c0,0-1.72,1.09-4.24,1.37l4.81-.17.57-.34-.69-9.39-.17-2"/>
          <path id="path72" class="cls-11" d="m34.9,41.77l2.23-.63,4.24-.23.63-1.95-1.15-3.38-1.32-.17-1.83.57-1.76.86-.93-.17-.73.29"/>
          <path id="path74" class="cls-8" d="m34.86,40.63s1.49-.69,1.72-.63l-.63-3.15.74-.29s.52,2.98.52,3.32c0,0,3.21.17,3.49.17,0,0,.69-1.32.52-2.69l.63,1.83.06,1.03-.92,1.37-1.03.23-1.72-.06-.57-.74-2,.29-.63.23"/>
          <path id="path76" class="cls-17" d="m32.61,36.56l-1.26-3.21-1.32-1.89s.29-.8.69-.8h1.32l1.26.46-.11,2.12-.57,3.32"/>
          <path id="path78" class="cls-8" d="m32.85,35.47s-1.6-3.09-1.6-3.55c0,0,.29-.69.69-.52s1.26.63,1.26.63v-1.09l-1.95-.4-1.32.17,2.23,5.27.46.06"/>
          <path id="path80" class="cls-17" d="m25.85,27.91l-1.59-.17-1.49-.46v.52l.73.8,2.29,1.03"/>
          <path id="path82" class="cls-8" d="m23.29,28.09s1.78.74,2.35.57l.06.69-1.6-.34-.97-.69.17-.23"/>
          <path id="path84" class="cls-9" d="m34.89,30.86c-.97-.03-1.85-.14-2.62-.36.05-.32-.05-.62.03-.85.21-.15.57-.15.9-.19-.28-.14-.67-.19-1-.11,0-.22-.11-.35-.17-.53.55-.19,1.84-1.47,2.56-1.05.35.2.49,1.35.52,1.91.02.46-.04.93-.23,1.18"/>
          <path id="path86" class="cls-1" d="m34.89,30.86c-.97-.03-1.85-.14-2.62-.36.05-.32-.05-.62.03-.85.21-.15.57-.15.9-.19-.28-.14-.67-.19-1-.11,0-.22-.11-.35-.17-.53.55-.19,1.84-1.47,2.56-1.05.35.2.49,1.35.52,1.91.02.46-.04.93-.23,1.18Z"/>
          <path id="path88" class="cls-9" d="m30.25,29.27c0,.07,0,.15,0,.22-.3.2-.79.2-1.13.36.49.02.88.14,1.21.31,0,.19-.01.37-.02.56-.56.38-1.06.95-1.72,1.3-.31.17-1.4.6-1.73.53-.19-.04-.2-.27-.28-.49-.16-.47-.52-1.21-.56-1.91-.04-.89-.13-2.37.83-2.19.77.15,1.67.5,2.27.83.37.2.58.45,1.13.49"/>
          <path id="path90" class="cls-1" d="m30.25,29.27c0,.07,0,.15,0,.22-.3.2-.79.2-1.13.36.49.02.88.14,1.21.31,0,.19-.01.37-.02.56-.56.38-1.06.95-1.72,1.3-.31.17-1.4.6-1.73.53-.19-.04-.2-.27-.28-.49-.16-.47-.52-1.21-.56-1.91-.04-.89-.13-2.37.83-2.19.77.15,1.67.5,2.27.83.37.2.58.45,1.13.49Z"/>
          <path id="path92" class="cls-9" d="m30.8,30.33c-.08-.48-.18-.62-.14-1.04,1.29-.86,1.53,1.48.14,1.04"/>
          <path id="path94" class="cls-1" d="m30.8,30.33c-.08-.48-.18-.62-.14-1.04,1.29-.86,1.53,1.48.14,1.04Z"/>
          <path id="path96" class="cls-10" d="m32.67,30.72s-.4-.57-.11-.74.57,0,.74-.29,0-.46.06-.8.34-.4.63-.46,1.09-.17,1.2.11l-.34-1.03-.69-.23-2.18,1.26-.11.63v1.26"/>
          <path id="path98" class="cls-10" d="m26.65,32.61c-.07-.89-.14-1.79-.22-2.68-.12-1.33.32-1.1,1.48-1.1.18,0,1.09.21,1.15.34.31.64-.52.5.36.98.74.41,2.06-.25,1.76-1.15-.17-.2-.88-.06-1.13-.19-.45-.23-.89-.46-1.34-.7-.57-.3-1.88-.73-2.49-.31-1.54,1.05.1,3.66.65,4.75"/>
          <path id="path100" class="cls-4" d="m28.16,12.32c-1.56-.36-2.34.65-2.81,1.71-.42-.1-.25-.68-.15-.97.28-.77,1.41-1.79,2.32-1.65.4.06.93.42.63.91"/>
          <path id="path102" class="cls-4" d="m35.76,14.1s.05,0,.07,0c.35.73.66,1.51,1.1,2.16-.3.69-2.26,1.31-2.23.06.42-.19,1.15-.04,1.53-.27-.22-.6-.53-1.1-.48-1.95"/>
          <path id="path104" class="cls-4" d="m28.96,14.12c.33.61.44,1.26.92,1.72.21.21.63.46.42,1.04-.05.14-.4.44-.6.5-.74.22-2.48.05-1.89-.88.61.03,1.44.4,1.9-.05-.35-.56-.98-1.68-.75-2.34"/>
          <path id="path106" class="cls-4" d="m35.48,20.35c-1.12.72-2.37,1.5-4.2,1.32-.39-.34-.54-1.1-.16-1.6.2.34.07.97.63,1.06,1.04.18,2.25-.64,3-.92.46-.78-.04-1.07-.46-1.57-.86-1.03-2-2.31-1.96-3.86.35-.25.38.38.43.5.45,1.05,1.57,2.38,2.39,3.28.2.22.53.43.57.58.11.42-.28.93-.23,1.21"/>
          <path id="path108" class="cls-4" d="m20.72,19.6c-.35-.2-.43-1.08-.85-1.11-.59-.04-.48,1.14-.48,1.83-.41-.37-.48-1.5-.18-2.08-.34-.17-.49.18-.68.31.24-1.76,2.57-.82,2.18,1.05"/>
          <path id="path110" class="cls-4" d="m36.2,21.09c-.52.99-1.26,2.08-2.79,2.12-.03-.32-.05-.81,0-1,1.17-.11,1.89-.71,2.79-1.12"/>
          <path id="path112" class="cls-4" d="m28.87,21.73c.98.51,2.77.57,4.09.53.07.29.07.65.07,1-1.7.09-3.72-.34-4.17-1.53"/>
          <path id="path114" class="cls-4" d="m28.69,22.69c.67,1.69,2.99,1.5,4.95,1.45-.09.22-.27.48-.5.57-.63.25-2.35.45-3.22-.01-.55-.29-.91-.96-1.21-1.34-.15-.19-.87-.67-.01-.67"/>
          <path id="path116" class="cls-6" d="m35.4,32.03c-.79,1.36-1.55,2.75-2.49,3.94.39-1.16.56-3.1.62-4.57.82-.39,1.53.09,1.87.63"/>
          <path id="path118" class="cls-4" d="m39.66,36.9c-.89.18-1.51,1.04-2.37.98.48-.67,1.31-.95,2.37-.98"/>
          <path id="path120" class="cls-4" d="m40.05,38.29c-.72.08-1.57.19-2.3.13.35-.53,1.68-.35,2.3-.13"/>
          <path id="path122" class="cls-4" d="m40.3,39.48c-.81.02-1.82,0-2.59-.06.46-.49,2.07-.18,2.59.06"/>
          <path id="path124" class="cls-8" d="m33.88,42.75c.12,1.02.52,2.05.47,3.17-.45.15-.71.28-1.31.28-.04-.95-.17-2.4-.13-3.3.3.02.73-.21.97-.15"/>
          <path id="path126" class="cls-12" d="m32.57,27.73c-.41.27-.75.6-1.15.88-.87.04-1.34-.06-1.98-.56.01-.04.07-.02.08-.07.93.41,2.11-.17,3.05-.25"/>
          <path id="path128" class="cls-6" d="m27.69,34.06c.26-1.11,1.26-1.68,2.16-2.29.94,1.19,1.51,2.72,2.14,4.2-1.48-.45-3-1.17-4.3-1.91"/>
          <path id="path130" class="cls-4" d="m32.91,42.9c-.04.9.09,2.36.13,3.3.6,0,.86-.13,1.31-.28.05-1.12-.35-2.15-.47-3.17-.24-.06-.67.17-.97.15Zm-9.36-5.14c.4,3.65.97,6.71,2.02,9.94,2.34.71,5.16.77,7.22.13-.38-1.82-.21-4.04-.44-5.98-.17-1.46-.08-2.93-.31-4.42-2.5-.52-6.04-.12-8.5.34Zm9.09-.32c-.02,1.57.07,3.11.19,4.68.6-.09,1.01-.15,1.57-.27-.18-1.51-.16-3.21-.53-4.54-.43,0-.8,0-1.23.14Zm3.05-.25c-.29-.07-.62,0-.89,0,.13,1.28.44,2.68.55,4.02.43.01.66-.19,1.01-.26.02-1.18-.1-2.8-.67-3.77h0Zm4.62,4.22c.89-.22,1.46-1.31,1.21-2.44-.17-.76-.47-2.18-.79-2.66-.24-.36-.88-.83-1.39-.5-.83.53-2.3.69-2.91,1.33.3,1.01.4,2.41.52,3.69,1.04.06,2.32-.29,3.18.09-.6.2-1.39.2-1.91.48.43.21,1.42.16,2.08,0h0Zm-8.31-5.44c-.63-1.48-1.2-3.01-2.14-4.2-.91.61-1.91,1.18-2.16,2.29,1.3.74,2.82,1.46,4.3,1.91Zm1.55-4.57c-.06,1.48-.23,3.41-.62,4.57.94-1.2,1.7-2.59,2.49-3.94-.34-.54-1.04-1.01-1.87-.63Zm-1.75-.62c-.36-.04-.66.41-1.12.22-.11.12-.2.24-.31.36,1.02,1.23,1.49,2.98,2.28,4.43.42-1.39.37-2.91.47-4.43-.58.04-.9-.53-1.31-.57Zm-1.13-1.49c-.04.42.06.56.14,1.04,1.39.43,1.14-1.9-.14-1.04Zm-1.54-.5c-.6-.33-1.49-.68-2.27-.83-.96-.18-.87,1.3-.83,2.19.03.7.4,1.45.56,1.91.07.22.09.45.28.49.33.08,1.42-.36,1.73-.53.65-.36,1.16-.92,1.72-1.3,0-.19.01-.37.02-.56-.33-.17-.72-.28-1.21-.31.33-.17.82-.17,1.13-.36,0-.07,0-.15,0-.22-.55-.04-.76-.29-1.13-.49Zm-5.71-1.04c-.5.5,1.39,1.19,1.99,1.23,0-.32.18-.62.14-.85-.71-.13-1.65-.04-2.14-.38Zm6.11.24s-.07.03-.08.07c.64.5,1.11.6,1.98.56.39-.28.74-.62,1.15-.88-.94.08-2.12.67-3.05.25Zm5.61,1.7c-.03-.56-.17-1.71-.52-1.91-.73-.42-2.01.85-2.56,1.05.06.17.16.31.17.53.32-.08.72-.03,1,.11-.32.04-.68.03-.9.19-.08.23.02.54-.03.85.77.22,1.65.33,2.62.36.19-.25.25-.71.23-1.18Zm-12.55-1.45c-.16-.11-1.21-1.48-1.35-1.42-1.91.75-3.69,2.05-5.28,3.28,1.52,3.26,2.13,7.25,2.24,11.09,1.74.81,3.27,1.99,5.63,2.11-.27-1.93-.52-3.66-.68-5.47-.59-.25-1.44.01-2-.08,0-.67.85-.29.92-.74.05-.34-.47-.37-.3-.9.43.16.66.51,1.12.64.42-.92,0-2.56.06-3.33.01-.15.07-.8.4-.69.29.1-.02,1.75.02,2.48.03.67-.08,1.33.19,1.75,2.28-.31,4.6-.51,7.06-.58-.54-.23-1.19-.45-1.89-.85-.38-.22-1.59-.67-1.7-1.03-.18-.58.46-.89.57-1.39-1.15.63-1.38-.6-1.65-1.47-.25-.79-.39-1.38-.45-1.83-.99-.47-2.05-.95-2.91-1.56h0Zm11.54-1.26c1.59-.77,1.87,2.88,1.25,4.05.1.35.43.48.56.8-.89,1.59-1.87,3.07-2.77,4.64.67-.42,1.63-.07,2.42-.39.29-.11.5-.78.72-1.31.6-1.46,1.23-3.29,1.52-4.69.06-.32.24-1.01.2-1.29-.07-.51-.75-.88-1.1-1.19-.64-.58-1.05-1.08-1.72-1.62-.27.4-.85.67-1.08,1h0Zm-15.17-14.08c-.76.83-.6,2.39-.51,3.5,1.37-.86,3.18.07,3.17,1.53.65-.02.24-.82.13-1.33-.39-1.68.65-3.5.05-5.04-1.17.09-2.13.57-2.83,1.34h0Zm5.41-4.83c-1.71.49-3.91,1.73-4.61,3.27.54-.08.92-.35,1.46-.39.2-.01.47.09.7.03.47-.12.86-1.16,1.21-1.55.34-.38.75-.54,1.03-.89.18-.09.45-.08.46-.35-.08-.08-.16-.15-.25-.12Zm8.92.46c-1.78-1-4.79-1.76-6.68-.81-1.53.76-3.59,2.02-4.29,3.61.66,1.54-.19,2.95-.25,4.51-.03.83.39,1.56.42,2.46-.22.37-.91.42-1.39.39-.16-.8-.44-1.7-1.26-1.79-1.17-.13-2.02.84-2.07,1.85-.06,1.19.91,3.15,2.29,3.02.53-.05.66-.59,1.25-.58.32.63-.49.83-.57,1.28-.02.12.07.57.12.78.25,1.04.81,2.38,1.36,3.17.7,1,2.07,1.15,3.55,1.25.26-.57,1.24-.52,1.87-.37-.76-.3-1.46-1.03-2.05-1.67-.67-.74-1.35-1.53-1.39-2.5,1.27,1.76,2.32,3.3,4.62,4.07,1.75.59,3.78-.27,5.13-1.21.56-.39.89-1.01,1.28-1.58,1.48-2.13,2.17-5.17,2.02-8.11-.06-1.21-.06-2.43-.47-3.24-.43-.85-1.87-1.62-2.71-.85-.16-.83.7-1.34,1.71-1.05-.72-.93-1.47-2.04-2.49-2.62h0Zm3.31,27.41c1.39-.69,3.98-1.86,4.86,0,.32.69.7,1.85.86,2.55.24,1-.25,3.1-1.28,3.43-.91.3-1.97.28-3.06.06-.13-.11-.27-.29-.37-.49-.78-.03-1.51.04-2.13.36.06.58-.33.67-.7.79-.27,1.08.54,2.48.35,3.46-.14.7-1,.81-1.63.94-.02.39.03.71.07,1.04-.14.53-.79.84-1.41.91-2.02.24-5.09.35-7.03-.35-.54-1.33-.97-2.95-1.42-4.47-1.89.2-3.43-.82-4.87-1.49-.5-.23-1.19-.36-1.38-.76-.18-.39-.11-1.12-.15-1.82-.11-1.78-.21-3.5-.68-5.33-.21-.82-.58-1.54-.84-2.33-.24-.73-.65-1.64-.76-2.36-.16-1.08.86-1.14,1.51-1.61,1.01-.72,1.8-1.12,2.89-1.78.32-.19,1.3-.68,1.41-.91.22-.45-.38-1.08-.54-1.43-.25-.55-.38-1.03-.42-1.57-.91-.14-1.61-.69-2.03-1.3-.69-1.02-1.17-2.89-.57-4.32.05-.11.28-.33.32-.51.07-.34-.13-.79-.14-1.15-.06-1.86.31-3.46,1.56-4.02.51-2.02,2.32-2.69,4.03-3.7.64-.38,1.34-.62,2.07-.88,2.61-.96,6.62-.78,8.79.86.92.7,2.39,2.16,2.91,3.23,1.39,2.81,1.29,7.5.32,10.91-.13.46-.32,1.13-.58,1.68-.18.38-.76,1.15-.69,1.49.07.35,1.31,1.29,1.57,1.54.48.46,1.38,1.07,1.46,1.65.08.62-.27,1.46-.45,2.06-.59,1.99-1.17,3.83-1.85,5.6"/>
          <path id="path132" class="cls-13" d="m27.32,22.16c.08-.1.49-.25,1.07.03,0,0-.69.11-.63,1.26l-.29-.06s-.3-1.04-.15-1.23"/>
          <path id="path134" class="cls-2" d="m32.34,32.01c0,.17-.14.31-.32.31s-.31-.14-.31-.31.14-.32.31-.32.32.14.32.32"/>
          <path id="path136" class="cls-2" d="m32.65,33.47c0,.17-.14.31-.32.31s-.31-.14-.31-.31.14-.32.31-.32.32.14.32.32"/>
        </g>
      </g>
    </g>
  </g>
</svg>