<?xml version="1.0" encoding="UTF-8"?>
<svg id="Layer_2" data-name="Layer 2" xmlns="http://www.w3.org/2000/svg" viewBox="0 0 54.81 53.44">
  <defs>
    <style>
      .cls-1 {
        fill: #1d4676;
      }

      .cls-1, .cls-2 {
        stroke-width: 0px;
      }

      .cls-2 {
        fill: #fff;
      }
    </style>
  </defs>
  <g id="Icons">
    <g id="less">
      <path class="cls-1" d="m9.71,0h35.4c5.37,0,9.71,4.34,9.71,9.71v34.03c0,5.37-4.34,9.71-9.71,9.71H9.71c-5.37,0-9.71-4.34-9.71-9.71V9.71C0,4.34,4.34,0,9.71,0Z"/>
      <path id="Logo" class="cls-2" d="m4.94,29.56c0-.84-.54-1.74-2.09-1.8v-2.09c1.56-.06,2.09-.96,2.09-1.8,0-1.5-.24-2.45-.24-4.19,0-2.63.96-3.47,3.11-3.47h5.74v1.91h-4.67c-1.02,0-1.32.36-1.32,1.68s.12,2.51.12,3.95c0,1.85-.6,2.57-1.8,2.87v.12c1.2.3,1.8,1.02,1.8,2.87,0,1.5-.12,2.63-.12,3.95s.3,1.74,1.32,1.74h.48v1.85h-1.56c-2.15,0-3.11-.84-3.11-3.47,0-1.74.24-2.63.24-4.13Zm5.09-13.16h3.59v13.46c0,.78.36,1.02.66,1.02.12,0,.24,0,.42-.06l.42,2.63c-.42.18-1.02.3-1.8.3-2.45,0-3.29-1.62-3.29-4.07v-13.28Zm10.11,4.67c3.41,0,5.15,2.51,5.15,5.8,0,.66-.06,1.2-.12,1.5h-7.36c.3,1.85,1.56,2.63,3.17,2.63.9,0,1.74-.24,2.63-.78l1.2,2.15c-1.26.84-2.87,1.38-4.31,1.38-3.47,0-6.1-2.33-6.1-6.34-.06-3.89,2.81-6.34,5.74-6.34Zm2.09,5.09c0-1.38-.6-2.39-2.03-2.39-1.14,0-2.09.78-2.33,2.39h4.37Zm5.09,3.71c1.08.84,2.09,1.26,3.11,1.26,1.08,0,1.56-.42,1.56-1.02,0-.78-1.2-1.2-2.45-1.68-1.44-.54-3.17-1.56-3.17-3.53,0-2.21,1.85-3.77,4.61-3.77,1.85,0,3.23.78,4.25,1.56l-1.62,2.15c-.9-.66-1.68-1.02-2.57-1.02s-1.38.36-1.38.96c0,.78,1.14,1.08,2.39,1.56,1.56.54,3.29,1.44,3.29,3.65s-1.74,3.89-4.97,3.89c-1.56,0-3.41-.66-4.61-1.68l1.56-2.33Zm9.75,0c1.08.84,2.09,1.26,3.11,1.26,1.08,0,1.56-.42,1.56-1.02,0-.78-1.2-1.2-2.45-1.68-1.44-.54-3.17-1.56-3.17-3.53,0-2.21,1.85-3.77,4.61-3.77,1.85,0,3.23.78,4.25,1.56l-1.62,2.15c-.9-.66-1.68-1.02-2.57-1.02s-1.38.36-1.38.96c0,.78,1.14,1.08,2.33,1.56,1.56.54,3.29,1.44,3.29,3.65s-1.74,3.89-4.97,3.89c-1.56,0-3.41-.66-4.61-1.68l1.62-2.33Zm8.86,5.39c1.02,0,1.32-.36,1.32-1.74s-.12-2.51-.12-3.95c0-1.85.6-2.57,1.8-2.87v-.12c-1.2-.3-1.8-1.02-1.8-2.87,0-1.44.12-2.69.12-3.95s-.24-1.68-1.32-1.68h-.48v-1.85h1.56c2.15,0,3.11.84,3.11,3.47,0,1.68-.24,2.63-.24,4.19,0,.84.54,1.74,2.09,1.8v2.09c-1.56.06-2.09.96-2.09,1.8,0,1.56.24,2.45.24,4.19,0,2.63-.96,3.47-3.11,3.47h-1.56v-1.91l.48-.06Z"/>
    </g>
  </g>
</svg>