<?xml version="1.0" encoding="UTF-8"?>
<svg id="Layer_2" data-name="Layer 2" xmlns="http://www.w3.org/2000/svg" viewBox="0 0 54.81 53.44">
  <defs>
    <style>
      .cls-1 {
        fill: #fff;
        fill-rule: evenodd;
      }

      .cls-1, .cls-2 {
        stroke-width: 0px;
      }

      .cls-2 {
        fill: #0f698f;
      }
    </style>
  </defs>
  <g id="Icons">
    <g id="mysql">
      <path class="cls-2" d="m9.71,0h35.4c5.37,0,9.71,4.34,9.71,9.71v34.03c0,5.37-4.34,9.71-9.71,9.71H9.71c-5.37,0-9.71-4.34-9.71-9.71V9.71C0,4.34,4.34,0,9.71,0Z"/>
      <path id="Logo" class="cls-1" d="m45.86,38.42c-2.38-.07-4.23.18-5.78.83-.45.18-1.16.18-1.22.74.24.24.27.62.48.95.36.59.98,1.39,1.55,1.81l1.91,1.36c1.16.71,2.47,1.13,3.61,1.84.66.42,1.31.95,1.97,1.39.33.24.54.62.95.77v-.09c-.21-.27-.27-.65-.48-.95l-.9-.86c-.86-1.16-1.94-2.16-3.1-2.99-.95-.65-3.04-1.54-3.43-2.64l-.06-.07c.65-.07,1.43-.3,2.06-.47,1.01-.27,1.94-.21,2.98-.47l1.43-.42v-.27c-.54-.53-.92-1.24-1.49-1.75-1.52-1.3-3.19-2.58-4.92-3.64-.92-.59-2.12-.98-3.1-1.48-.36-.18-.95-.27-1.16-.56-.54-.65-.84-1.51-1.22-2.28l-2.44-5.16c-.54-1.16-.87-2.31-1.52-3.38-3.07-5.04-6.41-8.09-11.54-11.08-1.1-.62-2.41-.89-3.81-1.22l-2.24-.12c-.48-.21-.95-.77-1.37-1.04-1.7-1.07-6.08-3.38-7.34-.33-.81,1.93,1.19,3.82,1.87,4.8.51.68,1.16,1.45,1.52,2.22.2.5.27,1.04.48,1.57.48,1.3.92,2.76,1.55,3.97.33.62.68,1.28,1.1,1.84.24.33.66.47.75,1.01-.42.59-.45,1.48-.68,2.22-1.07,3.35-.66,7.5.86,9.96.48.74,1.6,2.37,3.13,1.75,1.34-.53,1.04-2.22,1.43-3.7.09-.36.03-.59.21-.83v.07l1.22,2.46c.92,1.45,2.53,2.96,3.88,3.97.72.53,1.28,1.45,2.18,1.78v-.09h-.06c-.18-.27-.45-.39-.69-.59-.54-.53-1.13-1.19-1.55-1.78-1.25-1.66-2.35-3.5-3.34-5.39-.48-.92-.9-1.93-1.28-2.84-.18-.36-.18-.89-.48-1.07-.45.65-1.1,1.22-1.43,2.01-.57,1.27-.63,2.84-.83,4.47-.12.03-.07,0-.12.07-.95-.24-1.28-1.22-1.64-2.04-.89-2.1-1.04-5.48-.27-7.91.21-.62,1.1-2.58.75-3.17-.18-.56-.78-.89-1.1-1.33-.39-.56-.8-1.27-1.07-1.9-.72-1.66-1.07-3.5-1.85-5.16-.36-.77-.98-1.57-1.49-2.28-.57-.8-1.19-1.36-1.64-2.31-.15-.33-.36-.86-.12-1.22.06-.24.18-.33.42-.39.39-.33,1.49.09,1.88.27,1.1.44,2.03.86,2.95,1.48.42.3.87.86,1.4,1.01h.63c.95.21,2.03.07,2.92.33,1.58.5,3.01,1.24,4.29,2.05,3.91,2.46,7.13,5.96,9.3,10.13.36.68.51,1.3.84,2.01.63,1.45,1.4,2.93,2.03,4.36.63,1.39,1.22,2.82,2.12,3.97.45.62,2.24.95,3.04,1.27.6.27,1.52.5,2.06.83,1.01.62,2.03,1.33,2.98,2.01.48.35,1.97,1.1,2.06,1.69v-.02ZM15.46,12.67c-.41,0-.82.05-1.22.15v.07h.06c.24.47.66.8.95,1.22l.69,1.42.06-.07c.42-.3.63-.77.63-1.48-.18-.21-.21-.42-.36-.62-.18-.3-.57-.44-.81-.68h0Z"/>
    </g>
  </g>
</svg>