<?xml version="1.0" encoding="UTF-8"?>
<svg id="Layer_2" data-name="Layer 2" xmlns="http://www.w3.org/2000/svg" viewBox="0 0 54.81 53.44">
  <defs>
    <style>
      .cls-1 {
        fill: #56a1d8;
      }

      .cls-1, .cls-2, .cls-3 {
        stroke-width: 0px;
      }

      .cls-2 {
        fill: #071f35;
      }

      .cls-3 {
        fill: #fff;
      }
    </style>
  </defs>
  <g id="Icons">
    <g id="photoshop">
      <path class="cls-1" d="m9.71,0h35.4c5.37,0,9.71,4.34,9.71,9.71v34.03c0,5.37-4.34,9.71-9.71,9.71H9.71c-5.37,0-9.71-4.34-9.71-9.71V9.71C0,4.34,4.34,0,9.71,0Z"/>
      <path class="cls-2" d="m11.72,3.27h31.06c4.71,0,8.52,3.81,8.52,8.52v29.86c0,4.71-3.81,8.52-8.52,8.52H11.72c-4.71,0-8.52-3.81-8.52-8.52V11.79C3.21,7.08,7.01,3.27,11.72,3.27Z"/>
      <g id="Outlined_Mnemonics_Logos" data-name="Outlined Mnemonics Logos">
        <g id="Ps">
          <path class="cls-3" d="m13.5,37.15v-21.11c0-.14.06-.23.21-.23.35,0,.68,0,1.15-.02.49-.02,1.01-.02,1.56-.04.55-.02,1.15-.02,1.78-.04.64-.02,1.25-.02,1.87-.02,1.68,0,3.08.21,4.23.64,1.03.35,1.97.92,2.75,1.68.66.66,1.17,1.46,1.5,2.34.31.86.47,1.74.47,2.67,0,1.76-.41,3.22-1.23,4.37s-1.97,2.01-3.3,2.5c-1.4.51-2.93.7-4.62.7-.49,0-.82,0-1.03-.02s-.49-.02-.88-.02v6.59c.02.14-.08.27-.23.29h-3.98c-.16,0-.25-.08-.25-.27Zm4.47-17.38v6.89c.29.02.55.04.8.04h1.09c.8,0,1.6-.12,2.36-.37.66-.18,1.23-.57,1.68-1.09.43-.51.64-1.21.64-2.11.02-.64-.14-1.27-.47-1.83-.35-.53-.84-.94-1.44-1.17-.76-.31-1.58-.43-2.42-.41-.53,0-1.01,0-1.4.02-.41-.02-.7,0-.84.02h0Z"/>
          <path class="cls-3" d="m41.81,25.42c-.62-.33-1.27-.55-1.97-.7-.76-.16-1.52-.27-2.3-.27-.41-.02-.84.04-1.23.14-.27.06-.49.21-.64.41-.1.16-.16.37-.16.55s.08.37.21.53c.18.23.43.41.7.55.47.25.96.47,1.46.68,1.11.37,2.17.88,3.16,1.5.68.43,1.23,1.01,1.62,1.7.33.66.49,1.37.47,2.11.02.96-.27,1.93-.8,2.73-.57.82-1.37,1.46-2.3,1.83-1.01.43-2.24.66-3.71.66-.94,0-1.87-.08-2.79-.27-.72-.12-1.44-.35-2.09-.66-.14-.08-.25-.23-.23-.39v-3.57c0-.06.02-.14.08-.18.06-.04.12-.02.18.02.8.47,1.64.8,2.54,1.01.78.21,1.6.31,2.42.31s1.33-.1,1.7-.29c.33-.14.55-.49.55-.86,0-.29-.16-.55-.49-.82-.33-.27-1.01-.57-2.01-.96-1.05-.37-2.01-.86-2.91-1.48-.64-.45-1.17-1.05-1.56-1.74-.33-.66-.49-1.37-.47-2.09,0-.88.25-1.72.7-2.48.51-.82,1.27-1.48,2.15-1.89.96-.49,2.17-.72,3.63-.72.84,0,1.7.06,2.54.18.62.08,1.21.25,1.76.47.08.02.16.1.21.18.02.08.04.16.04.25v3.34c0,.08-.04.16-.1.21-.18.04-.29.04-.37,0Z"/>
        </g>
      </g>
    </g>
  </g>
</svg>