<?xml version="1.0" encoding="UTF-8"?>
<svg id="Layer_2" data-name="Layer 2" xmlns="http://www.w3.org/2000/svg" viewBox="0 0 54.81 53.44">
  <defs>
    <style>
      .cls-1 {
        fill: #6181b7;
      }

      .cls-1, .cls-2 {
        stroke-width: 0px;
      }

      .cls-2 {
        fill: #fff;
      }
    </style>
  </defs>
  <g id="Icons">
    <g id="php">
      <path class="cls-1" d="m9.71,0h35.4c5.37,0,9.71,4.34,9.71,9.71v34.03c0,5.37-4.34,9.71-9.71,9.71H9.71c-5.37,0-9.71-4.34-9.71-9.71V9.71C0,4.34,4.34,0,9.71,0Z"/>
      <g id="Logo">
        <path class="cls-2" d="m15.5,21.75c1.32,0,2.2.24,2.64.73.45.5.54,1.32.31,2.5-.24,1.23-.71,2.12-1.39,2.64s-1.72.78-3.12.78h-2.1l1.3-6.66h2.36Zm-8.45,13.41h3.47l.83-4.23h2.97c1.32,0,2.38-.14,3.23-.42.85-.28,1.61-.73,2.31-1.39.59-.54,1.06-1.13,1.42-1.77s.61-1.35.76-2.12c.38-1.89.09-3.35-.83-4.41s-2.38-1.58-4.39-1.58h-6.68l-3.09,15.93Z"/>
        <path class="cls-2" d="m24.59,15h3.45l-.83,4.23h3.07c1.94,0,3.26.33,3.99,1.01.73.68.94,1.77.66,3.28l-1.44,7.41h-3.49l1.37-7.06c.17-.8.09-1.35-.17-1.63-.26-.28-.85-.45-1.72-.45h-2.76l-1.77,9.13h-3.45l3.09-15.93Z"/>
        <path class="cls-2" d="m42.05,21.75c1.32,0,2.2.24,2.64.73s.54,1.32.31,2.5c-.24,1.23-.71,2.12-1.39,2.64s-1.72.78-3.12.78h-2.1l1.3-6.66h2.36Zm-8.45,13.41h3.47l.83-4.23h2.97c1.32,0,2.38-.14,3.23-.42.85-.28,1.61-.73,2.31-1.39.59-.54,1.06-1.13,1.42-1.77s.61-1.35.76-2.12c.38-1.89.09-3.35-.83-4.41s-2.38-1.58-4.39-1.58h-6.68l-3.09,15.93Z"/>
      </g>
    </g>
  </g>
</svg>