<?xml version="1.0" encoding="UTF-8"?>
<svg id="Layer_2" data-name="Layer 2" xmlns="http://www.w3.org/2000/svg" viewBox="0 0 54.81 53.44">
  <defs>
    <style>
      .cls-1 {
        fill: #d0649a;
      }

      .cls-1, .cls-2 {
        stroke-width: 0px;
      }

      .cls-2 {
        fill: #fff;
      }
    </style>
  </defs>
  <g id="Icons">
    <g id="sass">
      <path class="cls-1" d="m9.71,0h35.4c5.37,0,9.71,4.34,9.71,9.71v34.03c0,5.37-4.34,9.71-9.71,9.71H9.71c-5.37,0-9.71-4.34-9.71-9.71V9.71C0,4.34,4.34,0,9.71,0Z"/>
      <path id="Logo" class="cls-2" d="m43.41,29.21c-1.55,0-2.89.38-4.02.93-.41-.82-.83-1.55-.9-2.08-.08-.62-.18-1-.08-1.75.1-.74.53-1.81.53-1.89s-.1-.46-.99-.47-1.66.17-1.75.4-.26.77-.37,1.32c-.15.81-1.78,3.7-2.71,5.21-.3-.59-.56-1.11-.62-1.52-.08-.62-.18-1-.08-1.75.1-.74.53-1.81.53-1.89s-.1-.46-.99-.47-1.66.17-1.75.4-.19.79-.37,1.32c-.19.53-2.35,5.36-2.91,6.61-.29.64-.54,1.15-.72,1.5h0s0,.02-.03.06c-.15.3-.24.46-.24.46h0c-.12.23-.25.43-.32.43-.05,0-.14-.58.02-1.38.32-1.68,1.09-4.28,1.08-4.37,0-.05.15-.5-.5-.74-.63-.23-.86.15-.91.15s-.1.14-.1.14c0,0,.7-2.93-1.34-2.93-1.28,0-3.04,1.4-3.92,2.66-.55.3-1.72.94-2.98,1.63-.48.27-.97.53-1.43.79-.03-.03-.06-.07-.1-.11-2.48-2.65-7.06-4.52-6.86-8.07.07-1.3.52-4.7,8.8-8.82,6.82-3.36,12.24-2.43,13.18-.36,1.34,2.95-2.91,8.42-9.95,9.21-2.69.3-4.1-.74-4.45-1.13-.37-.4-.43-.43-.57-.35-.23.12-.08.49,0,.7.21.55,1.08,1.52,2.54,2,1.3.42,4.44.66,8.26-.82,4.27-1.65,7.6-6.24,6.62-10.09-.98-3.9-7.46-5.19-13.58-3.01-3.64,1.3-7.59,3.34-10.44,5.99-3.38,3.16-3.91,5.9-3.69,7.05.79,4.08,6.41,6.74,8.66,8.7-.11.06-.22.12-.31.17-1.13.56-5.42,2.8-6.48,5.17-1.21,2.69.19,4.61,1.13,4.87,2.89.8,5.86-.64,7.46-3.02,1.59-2.38,1.4-5.47.66-6.89,0-.02-.02-.03-.03-.05.29-.17.59-.35.88-.52.57-.34,1.14-.66,1.63-.91-.28.75-.48,1.65-.57,2.95-.12,1.52.5,3.5,1.32,4.27.36.34.79.35,1.07.35.96,0,1.38-.79,1.86-1.73.58-1.15,1.11-2.49,1.11-2.49,0,0-.66,3.61,1.13,3.61.65,0,1.3-.84,1.59-1.27h0s.02-.02.05-.07c.06-.11.11-.17.11-.17v-.02c.26-.45.84-1.48,1.71-3.19,1.12-2.2,2.19-4.95,2.19-4.95,0,0,.1.67.43,1.79.19.66.6,1.38.92,2.07-.26.36-.42.57-.42.57h0c-.21.28-.44.58-.69.87-.88,1.05-1.93,2.26-2.08,2.61-.17.41-.13.71.19.96.23.18.66.2,1.08.18.79-.06,1.35-.25,1.63-.37.43-.15.93-.39,1.4-.74.87-.64,1.39-1.55,1.34-2.76-.02-.66-.24-1.33-.51-1.95.08-.11.15-.23.23-.34,1.37-2,2.43-4.19,2.43-4.19,0,0,.1.67.43,1.79.16.57.49,1.18.79,1.78-1.29,1.04-2.08,2.26-2.36,3.05-.51,1.47-.11,2.14.64,2.29.34.07.83-.09,1.18-.24.45-.15.99-.4,1.5-.77.87-.64,1.7-1.53,1.65-2.74-.02-.55-.17-1.09-.37-1.62,1.09-.45,2.5-.7,4.3-.49,3.85.45,4.61,2.86,4.47,3.87s-.96,1.56-1.22,1.73-.36.23-.33.35c.03.18.16.17.39.14.32-.06,2.02-.82,2.1-2.68.12-2.38-2.15-4.98-6.15-4.95Zm-29.73,10.02c-1.28,1.39-3.06,1.92-3.83,1.47-.83-.48-.5-2.53,1.07-4.01.96-.9,2.19-1.73,3-2.24.19-.11.46-.28.79-.48.06-.03.09-.05.09-.05h0c.06-.04.13-.08.19-.12.57,2.1.02,3.96-1.32,5.42Zm9.31-6.33c-.45,1.08-1.38,3.86-1.94,3.71-.49-.13-.79-2.23-.1-4.31.35-1.04,1.08-2.29,1.51-2.78.7-.78,1.47-1.04,1.65-.72.23.41-.85,3.42-1.13,4.1Zm7.68,3.68c-.19.1-.36.16-.45.11-.06-.03.08-.16.08-.16,0,0,.96-1.04,1.34-1.51.22-.28.48-.6.75-.96v.11c0,1.24-1.2,2.07-1.73,2.41Zm5.93-1.35c-.14-.1-.11-.42.35-1.43.18-.4.6-1.06,1.32-1.7.08.26.14.51.13.74,0,1.56-1.13,2.15-1.8,2.39Z"/>
    </g>
  </g>
</svg>