<?xml version="1.0" encoding="UTF-8"?>
<svg id="Layer_2" data-name="Layer 2" xmlns="http://www.w3.org/2000/svg" viewBox="0 0 54.81 53.44">
  <defs>
    <style>
      .cls-1 {
        fill: #3c99d4;
      }

      .cls-1, .cls-2, .cls-3, .cls-4 {
        stroke-width: 0px;
      }

      .cls-2 {
        fill: #c6c6c5;
      }

      .cls-3 {
        fill: #fff;
      }

      .cls-4 {
        fill: #e5e5e5;
      }
    </style>
  </defs>
  <g id="Icons">
    <g id="visual_studio_code" data-name="visual studio code">
      <path class="cls-1" d="m9.71,0h35.4c5.37,0,9.71,4.34,9.71,9.71v34.03c0,5.37-4.34,9.71-9.71,9.71H9.71c-5.37,0-9.71-4.34-9.71-9.71V9.71C0,4.34,4.34,0,9.71,0Z"/>
      <g id="Logo">
        <path class="cls-3" d="m34.67,43.85c.61.63,1.36.42,1.36.42l8.23-4.05c1.05-.72.91-1.61.91-1.61V14.4c0-1.06-1.09-1.43-1.09-1.43l-7.13-3.44c-1.56-.96-2.58.17-2.58.17,0,0,1.31-.95,1.95.84v32.01c0,.22-.05.44-.14.63-.19.38-.6.73-1.57.58l.07.08Z"/>
        <path class="cls-4" d="m9.96,21.4s-.87-.62.17-1.46l2.42-2.16s.69-.73,1.42-.09l22.33,16.91v8.11s-.01,1.27-1.64,1.13L9.96,21.4Z"/>
        <path class="cls-2" d="m15.72,26.63l-5.76,5.23s-.59.44,0,1.23l2.67,2.43s.63.68,1.57-.09l6.1-4.63-4.59-4.17Z"/>
        <path class="cls-2" d="m25.82,26.67l10.56-8.06-.07-8.07s-.45-1.76-1.95-.84l-14.05,12.79,5.51,4.18Z"/>
      </g>
    </g>
  </g>
</svg>