<?xml version="1.0" encoding="UTF-8"?>
<svg id="Layer_2" data-name="Layer 2" xmlns="http://www.w3.org/2000/svg" viewBox="0 0 54.81 53.44">
  <defs>
    <style>
      .cls-1 {
        fill: #fff;
      }

      .cls-1, .cls-2 {
        stroke-width: 0px;
      }

      .cls-2 {
        fill: #00759c;
      }
    </style>
  </defs>
  <g id="Icons">
    <g id="wordpress">
      <path class="cls-2" d="m9.71,0h35.4c5.37,0,9.71,4.34,9.71,9.71v34.03c0,5.37-4.34,9.71-9.71,9.71H9.71c-5.37,0-9.71-4.34-9.71-9.71V9.71C0,4.34,4.34,0,9.71,0Z"/>
      <g id="Logo">
        <path class="cls-1" d="m10.19,26.94c0,6.82,3.96,12.71,9.7,15.49l-8.21-22.51c-.96,2.15-1.49,4.51-1.49,7.01Z"/>
        <path class="cls-1" d="m39.03,26.07c0-2.12-.76-3.6-1.42-4.75-.88-1.42-1.7-2.62-1.7-4.03,0-1.58,1.2-3.06,2.89-3.06.08,0,.15,0,.22.01-3.07-2.8-7.14-4.52-11.63-4.52-6.01,0-11.31,3.09-14.39,7.76.4.01.78.02,1.11.02,1.8,0,4.59-.22,4.59-.22.93-.06,1.04,1.31.11,1.42,0,0-.93.11-1.97.17l6.27,18.65,3.76-11.3-2.69-7.35c-.93-.06-1.81-.17-1.81-.17-.93-.06-.82-1.47.11-1.42,0,0,2.84.22,4.53.22,1.8,0,4.59-.22,4.59-.22.93-.06,1.04,1.31.11,1.42,0,0-.93.11-1.97.17l6.22,18.51,1.72-5.74c.76-2.37,1.33-4.09,1.33-5.56Z"/>
        <path class="cls-1" d="m27.71,28.45l-5.16,15.01c1.54.46,3.18.7,4.87.7,2.01,0,3.93-.35,5.72-.98-.05-.08-.09-.15-.12-.24l-5.29-14.5Z"/>
        <path class="cls-1" d="m42.51,18.68c.08.55.12,1.13.12,1.77,0,1.74-.33,3.71-1.31,6.17l-5.26,15.2c5.12-2.98,8.56-8.53,8.56-14.88,0-3-.77-5.81-2.11-8.26Z"/>
        <path class="cls-1" d="m27.41,6.87c-11.07,0-20.07,9-20.07,20.07s9,20.07,20.07,20.07,20.07-9,20.07-20.07S38.47,6.87,27.41,6.87Zm0,39.22c-10.56,0-19.15-8.59-19.15-19.15S16.84,7.79,27.41,7.79s19.15,8.59,19.15,19.15-8.59,19.15-19.15,19.15Z"/>
      </g>
    </g>
  </g>
</svg>